<?xml version="1.0" standalone="no"?>
<!DOCTYPE svg PUBLIC "-//W3C//DTD SVG 20010904//EN"
 "http://www.w3.org/TR/2001/REC-SVG-20010904/DTD/svg10.dtd">
<svg version="1.0" xmlns="http://www.w3.org/2000/svg"
 width="253.000000pt" height="241.000000pt" viewBox="0 0 253.000000 241.000000"
 preserveAspectRatio="xMidYMid meet">
<metadata>
Created by potrace 1.13, written by Peter Selinger 2001-2015
</metadata>
<g transform="translate(0.000000,241.000000) scale(0.100000,-0.100000)"
fill="#000000" stroke="none">
<path d="M520 2275 c-62 -18 -122 -54 -144 -87 -8 -13 -18 -52 -21 -88 -6 -58
-4 -69 17 -100 14 -21 47 -47 83 -65 55 -28 65 -30 174 -30 106 0 121 2 175
28 36 16 63 24 70 19 6 -5 85 -67 176 -137 91 -70 166 -129 168 -130 2 -2 -8
-19 -22 -40 -22 -32 -31 -60 -39 -125 -1 -9 -85 -50 -220 -106 l-218 -92 -54
24 c-168 77 -396 64 -526 -30 -58 -43 -75 -81 -84 -187 -8 -96 0 -123 52 -170
121 -113 397 -133 566 -42 59 33 93 71 106 121 13 48 18 159 8 197 l-7 30 181
75 c99 41 184 76 188 78 5 2 18 -13 29 -31 41 -70 169 -132 298 -144 l64 -6 0
-177 0 -177 -63 -7 c-137 -14 -284 -70 -364 -140 -63 -55 -83 -106 -90 -228
-7 -121 5 -155 79 -224 55 -52 85 -70 166 -101 269 -102 627 -50 784 113 51
53 66 96 74 206 6 82 4 100 -13 139 -54 121 -238 219 -443 236 l-67 6 -7 105
c-8 141 -8 252 2 252 32 1 148 33 181 50 59 30 118 86 130 123 5 18 12 62 16
99 8 78 -8 121 -60 167 l-33 29 69 27 68 28 63 -29 c58 -27 72 -29 178 -29
108 0 119 2 175 30 83 41 105 77 105 168 0 69 -1 71 -39 107 -97 93 -322 105
-443 25 -53 -35 -70 -66 -75 -139 l-6 -65 -94 -40 -93 -41 -68 16 c-91 22
-224 14 -318 -17 l-71 -24 -184 143 -184 144 0 73 c0 59 -4 79 -21 102 -26 36
-76 70 -123 84 -61 19 -190 20 -251 4z"/>
</g>
</svg>
