<?xml version="1.0" standalone="no"?>
<!DOCTYPE svg PUBLIC "-//W3C//DTD SVG 20010904//EN"
 "http://www.w3.org/TR/2001/REC-SVG-20010904/DTD/svg10.dtd">
<svg version="1.0" xmlns="http://www.w3.org/2000/svg"
 width="208.000000pt" height="193.000000pt" viewBox="0 0 208.000000 193.000000"
 preserveAspectRatio="xMidYMid meet">
<metadata>
Created by potrace 1.13, written by Peter Selinger 2001-2015
</metadata>
<g transform="translate(0.000000,193.000000) scale(0.100000,-0.100000)"
fill="#000000" stroke="none">
<path d="M446 1884 c-9 -70 -7 -194 4 -235 l10 -36 111 -22 c209 -42 407 -123
569 -235 158 -108 321 -300 417 -489 46 -92 108 -283 123 -377 20 -126 15
-117 67 -125 63 -9 200 -7 238 3 36 10 36 16 -1 200 -110 551 -421 956 -918
1192 -174 84 -470 170 -581 170 -31 0 -33 -2 -39 -46z"/>
<path d="M403 1433 c-10 -50 -10 -188 0 -235 7 -33 12 -38 45 -43 285 -46 460
-143 602 -335 83 -112 160 -299 185 -452 7 -43 12 -46 114 -54 75 -6 211 10
211 25 0 3 -11 51 -24 106 -45 185 -104 323 -199 465 -63 94 -240 271 -333
332 -145 97 -327 174 -497 213 -93 21 -95 20 -104 -22z"/>
<path d="M357 974 c-8 -48 -7 -198 2 -238 7 -33 9 -34 109 -71 185 -69 291
-193 309 -365 4 -40 11 -61 21 -65 29 -11 168 -18 223 -11 82 10 81 9 64 108
-18 107 -59 222 -109 313 -46 83 -175 214 -259 264 -76 45 -211 90 -290 98
l-64 6 -6 -39z"/>
<path d="M230 509 c-55 -25 -105 -71 -133 -124 -32 -60 -31 -173 3 -239 50
-97 156 -154 265 -143 260 27 326 385 93 501 -67 33 -161 35 -228 5z"/>
</g>
</svg>
