<?xml version="1.0" standalone="no"?>
<!DOCTYPE svg PUBLIC "-//W3C//DTD SVG 20010904//EN"
 "http://www.w3.org/TR/2001/REC-SVG-20010904/DTD/svg10.dtd">
<svg version="1.0" xmlns="http://www.w3.org/2000/svg"
 width="277.000000pt" height="257.000000pt" viewBox="0 0 277.000000 257.000000"
 preserveAspectRatio="xMidYMid meet">
<metadata>
Created by potrace 1.13, written by Peter Selinger 2001-2015
</metadata>
<g transform="translate(0.000000,257.000000) scale(0.100000,-0.100000)"
fill="#000000" stroke="none">
<path d="M1870 2544 c-359 -76 -674 -185 -926 -320 -372 -198 -637 -450 -792
-753 -94 -183 -114 -251 -119 -411 -7 -184 15 -294 89 -440 45 -92 64 -117
148 -200 108 -108 212 -177 377 -250 92 -40 400 -150 421 -150 4 0 -9 10 -28
22 -358 219 -511 383 -586 633 -24 80 -27 106 -28 240 -1 154 12 241 56 383
l19 62 138 0 c76 0 160 3 186 7 45 6 50 10 98 75 l49 68 54 0 c30 0 54 -2 54
-5 0 -3 -26 -56 -57 -119 l-56 -114 -154 -7 -153 -7 -10 -38 c-20 -75 -32
-206 -25 -288 32 -421 317 -702 827 -816 63 -14 119 -26 124 -26 5 0 -18 14
-50 31 -295 152 -474 423 -493 744 -9 169 36 365 128 547 178 355 403 613 709
814 124 81 320 185 498 265 78 35 138 65 132 67 -34 12 -400 -86 -585 -156
-449 -169 -822 -436 -1039 -744 l-68 -98 -89 0 c-65 0 -89 3 -89 13 0 39 126
213 240 331 242 251 588 461 1020 617 110 40 102 49 -20 23z"/>
</g>
</svg>
