<?xml version="1.0" standalone="no"?>
<!DOCTYPE svg PUBLIC "-//W3C//DTD SVG 20010904//EN"
 "http://www.w3.org/TR/2001/REC-SVG-20010904/DTD/svg10.dtd">
<svg version="1.0" xmlns="http://www.w3.org/2000/svg"
 width="241.000000pt" height="241.000000pt" viewBox="0 0 241.000000 241.000000"
 preserveAspectRatio="xMidYMid meet">

<g id="internet-icon" class="internet-icons" transform="translate(0.000000,241.000000) scale(0.100000,-0.100000)"
fill="#000000" stroke="none">
<path d="M1340 2377 c168 -84 323 -234 453 -434 15 -24 34 -43 42 -43 9 0 80
16 160 36 168 42 165 34 53 140 -133 126 -278 216 -440 273 -96 33 -228 61
-292 61 l-41 0 65 -33z"/>
<path d="M1043 2319 c4 -13 37 -149 74 -301 45 -188 71 -278 80 -278 32 0 503
123 503 132 0 24 -93 143 -184 234 -143 143 -267 211 -420 229 -59 8 -59 8
-53 -16z"/>
<path d="M848 2291 c-77 -39 -132 -85 -186 -156 -90 -119 -157 -303 -180 -490
-5 -44 -8 -81 -7 -83 4 -5 580 140 589 149 5 4 4 26 -2 51 -5 24 -38 159 -72
301 -37 151 -67 257 -74 257 -6 0 -37 -13 -68 -29z"/>
<path d="M529 2211 c-191 -128 -348 -316 -437 -528 -35 -82 -76 -222 -68 -230
4 -5 142 27 297 68 l36 9 7 80 c20 221 96 437 208 588 22 30 38 56 35 58 -2 3
-38 -18 -78 -45z"/>
<path d="M2040 1834 c-74 -19 -141 -37 -147 -39 -9 -3 -3 -28 22 -84 70 -165
120 -346 144 -525 6 -44 13 -81 15 -83 2 -2 78 15 170 38 l166 41 0 85 c0 112
-32 265 -81 388 -56 139 -99 210 -130 212 -13 1 -85 -14 -159 -33z"/>
<path d="M1475 1693 c-143 -36 -261 -66 -262 -67 -1 -1 79 -336 97 -407 l10
-36 75 5 c45 3 86 0 103 -7 53 -22 59 -46 91 -375 17 -168 28 -313 25 -320 -8
-21 -33 -27 -57 -14 -12 6 -63 46 -113 89 l-92 79 -87 -95 c-149 -162 -313
-290 -445 -346 -183 -77 -339 -55 -469 65 -60 56 -59 51 5 -40 103 -146 234
-206 401 -183 59 8 83 6 154 -11 46 -11 125 -23 174 -26 l90 -6 -80 41 c-44
22 -90 49 -103 59 l-23 18 49 31 49 30 77 -37 c42 -20 102 -42 133 -49 63 -12
162 -14 179 -3 7 5 -3 64 -33 189 l-45 183 22 30 21 30 37 -30 c36 -29 38 -35
76 -195 24 -97 45 -165 52 -165 6 0 29 12 50 26 163 109 277 333 314 614 10
77 13 180 6 180 -2 0 -70 -16 -151 -35 -80 -19 -151 -33 -156 -30 -5 4 -9 28
-9 55 0 56 -24 44 193 99 65 16 120 31 122 33 7 7 -23 210 -44 298 -23 97 -67
227 -110 324 -22 47 -35 66 -48 65 -10 0 -135 -30 -278 -66z"/>
<path d="M810 1525 c-157 -39 -298 -75 -314 -79 l-29 -7 8 -92 c9 -119 29
-239 61 -355 30 -111 84 -252 96 -252 5 0 99 23 210 50 140 36 204 48 212 40
14 -14 33 -12 40 5 3 10 -28 43 -97 100 -150 126 -167 143 -167 165 0 12 10
25 23 30 16 7 302 40 347 40 7 0 -91 415 -100 423 -3 2 -133 -28 -290 -68z"/>
<path d="M162 1367 l-162 -41 0 -127 c0 -143 17 -259 56 -374 21 -64 76 -188
89 -203 3 -3 355 84 360 90 2 2 -16 62 -40 133 -51 149 -91 339 -101 473 -6
76 -10 92 -23 91 -9 -1 -89 -20 -179 -42z"/>
<path d="M2235 1022 c-77 -21 -146 -41 -152 -45 -9 -5 -13 -36 -13 -90 0 -222
-86 -502 -201 -655 -23 -29 -39 -55 -36 -58 7 -8 120 74 194 141 174 158 323
423 363 647 6 34 13 71 15 81 4 23 -5 22 -170 -21z"/>
<path d="M825 673 c-77 -20 -142 -37 -143 -39 -6 -4 50 -103 65 -115 15 -13
47 9 161 109 65 57 86 84 65 81 -5 0 -71 -17 -148 -36z"/>
<path d="M368 558 c-119 -30 -155 -43 -151 -54 3 -8 35 -28 71 -46 56 -28 78
-33 157 -36 66 -3 108 0 149 12 31 9 56 19 56 22 0 3 -8 18 -19 32 -10 15 -28
46 -40 70 -16 31 -27 42 -44 41 -12 0 -93 -19 -179 -41z"/>
</g>
</svg>
