<?xml version="1.0" standalone="no"?>
<!DOCTYPE svg PUBLIC "-//W3C//DTD SVG 20010904//EN"
 "http://www.w3.org/TR/2001/REC-SVG-20010904/DTD/svg10.dtd">
<svg version="1.0" xmlns="http://www.w3.org/2000/svg"
 width="273.000000pt" height="193.000000pt" viewBox="0 0 273.000000 193.000000"
 preserveAspectRatio="xMidYMid meet">
<metadata>
Created by potrace 1.13, written by Peter Selinger 2001-2015
</metadata>
<g transform="translate(0.000000,193.000000) scale(0.100000,-0.100000)"
fill="#000000" stroke="none">
<path d="M491 1899 c-6 -18 -11 -49 -11 -70 0 -34 -3 -38 -32 -44 -26 -6 -35
-4 -43 11 -17 30 -68 74 -87 74 -9 0 -20 -6 -24 -12 -11 -18 -5 -78 12 -109
12 -24 11 -28 -10 -48 -23 -22 -23 -22 -57 -3 -19 11 -49 22 -66 26 -66 12
-62 -65 6 -115 26 -19 28 -24 18 -50 -10 -26 -15 -28 -57 -28 -59 1 -100 -15
-100 -40 0 -23 43 -56 86 -67 33 -8 44 -20 44 -51 0 -15 -9 -25 -32 -33 -52
-17 -91 -54 -84 -78 10 -29 91 -44 126 -23 10 7 19 2 32 -20 18 -30 18 -30 -9
-58 -16 -15 -33 -42 -39 -59 -10 -26 -9 -33 5 -46 15 -13 24 -14 52 -5 19 7
43 20 55 30 25 23 30 23 58 1 20 -15 21 -20 10 -47 -7 -17 -13 -46 -14 -66 0
-28 5 -38 24 -47 22 -10 28 -7 60 29 20 21 36 46 36 55 0 11 8 14 32 12 28 -3
33 -8 40 -41 4 -21 15 -51 23 -68 32 -60 88 -13 88 73 0 34 3 39 31 46 27 7
33 5 51 -21 33 -49 69 -71 93 -58 17 9 19 18 15 53 -3 24 -12 53 -20 66 -13
21 -12 25 9 42 28 24 37 24 59 4 10 -9 38 -19 62 -21 35 -4 45 -2 50 12 9 21
-15 66 -51 97 -25 21 -27 26 -17 51 11 26 16 29 71 31 70 3 84 9 84 40 0 25
-61 66 -98 66 -15 0 -22 9 -27 30 -8 35 0 50 24 50 25 0 90 51 91 71 0 31 -27
42 -90 36 -58 -5 -61 -4 -75 23 -13 25 -13 29 6 46 12 11 29 35 39 54 15 30
16 38 5 54 -18 23 -64 14 -105 -21 -29 -24 -31 -24 -56 -8 -20 13 -24 22 -19
38 3 12 9 43 12 69 5 40 3 47 -17 58 -19 10 -26 8 -56 -21 -19 -19 -37 -44
-40 -56 -10 -37 -74 -28 -74 11 0 11 -9 40 -20 64 -15 33 -24 42 -44 42 -18 0
-27 -8 -35 -31z m144 -164 c72 -19 144 -63 181 -112 133 -174 80 -421 -111
-521 -44 -24 -61 -27 -150 -27 -89 0 -106 3 -150 27 -183 96 -240 327 -124
501 37 56 117 112 189 131 72 19 94 19 165 1z"/>
<path d="M435 1621 c-137 -79 -167 -258 -63 -376 52 -59 109 -85 184 -85 76 1
129 25 181 83 104 119 77 294 -57 375 -47 28 -63 32 -125 32 -59 0 -78 -5
-120 -29z m153 -122 c99 -34 72 -189 -33 -189 -104 0 -132 151 -35 189 33 13
32 13 68 0z"/>
<path d="M1623 1793 c-22 -4 -27 -20 -35 -117 -2 -22 -10 -32 -32 -39 -24 -8
-31 -6 -39 8 -5 10 -25 34 -42 54 -31 33 -35 34 -60 23 -26 -12 -27 -16 -22
-60 3 -26 8 -56 12 -68 5 -16 0 -25 -20 -38 -26 -17 -28 -17 -54 7 -14 14 -39
31 -56 40 -26 13 -32 13 -51 0 -22 -14 -22 -16 -8 -56 8 -23 22 -52 30 -65 15
-22 14 -26 -6 -47 -22 -23 -22 -23 -63 -5 -66 28 -93 32 -107 15 -17 -21 -6
-55 34 -100 32 -38 33 -41 19 -68 -10 -21 -19 -27 -31 -22 -9 4 -41 9 -69 12
-51 6 -53 5 -63 -23 -10 -26 -8 -32 22 -59 18 -16 43 -37 55 -45 16 -11 21
-22 17 -41 -5 -24 -12 -27 -59 -32 -68 -7 -95 -21 -95 -51 0 -24 49 -57 103
-70 22 -5 27 -12 27 -36 0 -24 -6 -33 -27 -40 -87 -32 -103 -43 -103 -71 0
-21 6 -29 31 -38 18 -6 49 -11 70 -11 35 0 39 -3 47 -32 8 -31 6 -34 -32 -59
-57 -36 -70 -54 -62 -85 7 -27 8 -27 80 -21 71 5 74 4 85 -20 10 -22 8 -29
-20 -60 -44 -51 -55 -79 -38 -99 15 -19 79 -13 116 12 29 19 35 18 55 -10 16
-22 16 -25 -8 -71 -29 -58 -30 -77 -6 -98 16 -15 20 -15 52 4 19 12 45 30 57
41 21 20 23 20 49 4 20 -14 24 -23 19 -39 -3 -12 -9 -43 -12 -69 -5 -44 -4
-48 22 -60 26 -11 29 -10 65 28 20 22 39 46 42 54 3 10 11 11 34 3 27 -9 29
-13 35 -76 6 -74 5 -72 36 -81 19 -6 27 0 53 40 16 27 30 57 30 67 0 13 5 17
16 13 9 -3 24 -6 34 -6 13 0 21 -10 26 -32 14 -64 36 -98 64 -98 28 0 41 25
54 101 5 27 13 38 29 43 34 9 35 8 56 -31 29 -57 61 -83 89 -72 22 8 23 14 21
81 -2 70 -1 73 24 82 22 8 32 4 78 -38 48 -43 53 -46 73 -32 24 16 24 57 0
115 -13 32 -13 36 5 55 20 19 20 19 85 -14 54 -27 68 -31 81 -20 23 19 18 51
-15 103 -29 46 -29 49 -14 73 11 16 22 23 33 19 53 -21 111 -28 126 -15 25 21
17 46 -30 92 -42 41 -44 47 -35 74 10 28 12 29 70 26 65 -4 90 7 90 39 0 20
-49 62 -91 78 -22 8 -26 14 -21 38 6 32 18 43 49 43 12 0 38 8 58 17 69 33 34
83 -72 100 -29 5 -33 9 -33 37 0 27 6 34 44 55 59 31 76 50 66 77 -9 24 -78
40 -122 29 -19 -5 -25 -1 -35 26 -11 28 -10 34 5 45 9 7 19 14 22 14 3 0 18
16 33 35 23 29 26 39 17 55 -12 23 -66 27 -119 9 -28 -10 -33 -8 -49 11 -18
23 -18 24 15 73 36 54 41 78 18 97 -19 16 -59 6 -106 -25 l-37 -24 -21 23
c-20 21 -20 25 -8 57 28 68 28 96 2 113 -23 15 -25 14 -74 -30 -45 -41 -54
-45 -78 -37 -27 9 -28 11 -25 81 4 68 2 73 -20 81 -28 11 -60 -15 -88 -70 -16
-31 -23 -35 -48 -31 -26 3 -31 10 -37 40 -14 81 -25 102 -54 102 -29 0 -51
-32 -65 -98 -7 -28 -12 -32 -40 -32 -29 0 -34 4 -44 38 -16 51 -51 89 -79 85z
m320 -189 c242 -53 440 -233 524 -477 35 -99 43 -272 18 -381 -25 -116 -94
-244 -177 -331 -84 -90 -168 -145 -279 -186 -70 -26 -103 -32 -200 -37 -147
-6 -236 12 -362 75 -73 37 -107 63 -172 127 -93 94 -135 161 -178 283 -29 81
-31 98 -31 218 0 148 14 215 71 332 140 287 471 446 786 377z"/>
<path d="M1640 1504 c-195 -51 -359 -203 -427 -396 -34 -97 -43 -253 -19 -348
60 -240 256 -423 496 -466 285 -50 572 115 675 389 89 238 29 497 -157 673
-75 70 -195 134 -286 153 -73 15 -216 13 -282 -5z m321 -63 c81 -26 174 -85
239 -152 46 -49 100 -134 90 -142 -3 -2 -81 -26 -173 -55 l-168 -51 -47 30
c-25 16 -54 29 -63 29 -18 0 -21 7 -99 267 -19 64 -24 94 -16 97 23 11 173 -4
237 -23z m-363 -203 c29 -95 52 -178 52 -184 0 -6 -9 -19 -20 -29 -11 -10 -25
-35 -32 -57 -11 -38 -12 -38 -122 -72 -61 -19 -140 -44 -176 -55 -36 -12 -66
-21 -67 -21 -2 0 -3 35 -3 78 0 145 52 280 148 383 49 53 145 129 162 129 4 0
30 -78 58 -172z m241 -252 c59 -31 67 -102 17 -152 -42 -42 -82 -45 -125 -8
-93 78 0 216 108 160z m511 -81 c0 -150 -50 -280 -148 -386 -49 -53 -159 -138
-166 -127 -1 1 -26 83 -56 181 l-53 177 21 23 c12 13 28 40 35 61 l13 39 170
53 c93 29 172 53 177 53 4 1 7 -33 7 -74z m-685 -165 c11 -11 38 -26 59 -33
l38 -13 54 -174 c29 -96 50 -177 48 -180 -3 -3 -40 -5 -82 -4 -148 2 -279 59
-387 168 -64 65 -116 139 -105 149 7 6 322 105 339 106 8 1 24 -8 36 -19z"/>
</g>
</svg>
