<?xml version="1.0" standalone="no"?>
<!DOCTYPE svg PUBLIC "-//W3C//DTD SVG 20010904//EN"
 "http://www.w3.org/TR/2001/REC-SVG-20010904/DTD/svg10.dtd">
<svg version="1.0" xmlns="http://www.w3.org/2000/svg"
 width="208.000000pt" height="193.000000pt" viewBox="0 0 208.000000 193.000000"
 preserveAspectRatio="xMidYMid meet">
<metadata>
Created by potrace 1.13, written by Peter Selinger 2001-2015
</metadata>
<g transform="translate(0.000000,193.000000) scale(0.100000,-0.100000)"
fill="#000000" stroke="none">
<path d="M342 1890 c-28 -22 -79 -76 -113 -122 -69 -90 -216 -329 -226 -366
-13 -53 108 -329 215 -490 185 -279 580 -631 872 -777 155 -78 382 -135 480
-122 72 9 315 212 474 395 36 42 37 45 20 63 -41 45 -326 210 -423 244 -44 15
-45 15 -85 -11 -23 -15 -73 -60 -113 -100 -79 -81 -98 -87 -188 -63 -172 47
-385 214 -527 414 -61 86 -148 256 -148 290 0 17 24 50 74 106 110 121 108
113 50 209 -110 181 -260 370 -294 370 -10 0 -41 -18 -68 -40z"/>
<path d="M881 1373 c-68 -77 -67 -94 9 -183 78 -90 100 -93 168 -19 26 28 50
60 55 71 10 28 -14 73 -73 136 -68 72 -92 71 -159 -5z m179 -109 c0 -6 -16
-30 -36 -53 l-37 -42 -34 33 c-19 18 -44 46 -55 61 l-21 29 44 44 44 45 47
-53 c26 -29 48 -58 48 -64z"/>
<path d="M1271 1224 c-34 -42 -61 -83 -61 -91 0 -31 33 -74 105 -137 42 -36
79 -66 83 -66 29 0 142 143 142 178 0 33 -155 192 -187 192 -14 0 -41 -25 -82
-76z"/>
<path d="M986 984 c-31 -42 -56 -84 -56 -93 0 -9 39 -53 87 -99 112 -106 124
-107 200 -8 29 37 53 79 53 91 0 16 -26 47 -87 104 -115 106 -123 106 -197 5z"/>
</g>
</svg>
