<?xml version="1.0" encoding="utf-8"?>
<!-- Generator: Adobe Illustrator 16.0.0, SVG Export Plug-In . SVG Version: 6.00 Build 0)  -->
<!DOCTYPE svg PUBLIC "-//W3C//DTD SVG 1.1//EN" "http://www.w3.org/Graphics/SVG/1.1/DTD/svg11.dtd">
<svg version="1.1" id="Layer_1" xmlns="http://www.w3.org/2000/svg" xmlns:xlink="http://www.w3.org/1999/xlink" x="0px" y="0px"
	 width="640.476px" height="227.848px" viewBox="10.134 31 640.476 227.848" enable-background="new 10.134 31 640.476 227.848"
	 xml:space="preserve">
<path id="lines4.svg" d="M16.85,94.95l0.298-1.067l633.461,163.898l-0.299,1.066L16.85,94.95z M13.754,94.704l-0.428-0.664
	l264-63.04l0.474,1.012L13.754,94.704z M15.266,93.908l-0.346-0.952l478.562,68.018l0.136,1.071L15.266,93.908z M10.597,92.143
	c1.096-1.99,3.343-2.548,5.019-1.246c1.675,1.301,2.145,2.97,1.049,4.96c-1.096,1.99-3.342,2.548-5.018,1.246
	c0,0-0.001,0-0.002-0.002c-1.425-1.272-1.988-2.913-1.046-4.949c0.001-0.003,0.003-0.006,0.004-0.009H10.597z"/>
</svg>
