<?xml version="1.0" encoding="utf-8"?>
<!-- Generator: Adobe Illustrator 16.0.0, SVG Export Plug-In . SVG Version: 6.00 Build 0)  -->
<!DOCTYPE svg PUBLIC "-//W3C//DTD SVG 1.1//EN" "http://www.w3.org/Graphics/SVG/1.1/DTD/svg11.dtd">
<svg version="1.1" id="Layer_1" xmlns="http://www.w3.org/2000/svg" xmlns:xlink="http://www.w3.org/1999/xlink" x="0px" y="0px"
	 width="666.401px" height="336.471px" viewBox="20.009 0 666.401 336.471" enable-background="new 20.009 0 666.401 336.471"
	 xml:space="preserve">
<path id="lines3.svg" d="M20.286,335.203l-0.277,1.268l661.033-115.313l-0.764-0.175L20.286,335.203z M683.35,220.163l0.341-0.477
	L492.045,0.423l-1.237-0.41L683.35,220.163z M682.08,219.663l0.26-0.673L257.059,172.52l-0.083,0.749L682.08,219.663z
	 M685.87,217.585c-0.961-1.351-2.834-1.666-4.184-0.705c-1.35,0.96-1.666,2.833-0.705,4.184c0.961,1.35,2.834,1.665,4.184,0.705
	c0.002-0.001,0.003-0.003,0.005-0.004c1.349-0.962,1.662-2.835,0.7-4.184V217.585z"/>
</svg>
