<?xml version="1.0" encoding="utf-8"?>
<!-- Generator: Adobe Illustrator 16.0.0, SVG Export Plug-In . SVG Version: 6.00 Build 0)  -->
<!DOCTYPE svg PUBLIC "-//W3C//DTD SVG 1.1//EN" "http://www.w3.org/Graphics/SVG/1.1/DTD/svg11.dtd">
<svg version="1.1" id="Layer_1" xmlns="http://www.w3.org/2000/svg" xmlns:xlink="http://www.w3.org/1999/xlink" x="0px" y="0px"
	 width="1000px" height="42px" viewBox="6 0 1000 42" enable-background="new 0 0 1010 45.078" xml:space="preserve">
<path fill="#717073" d="M21.437,34.48c0,0,0-23.074,0-24.753c0-1.68,0.583-3.805,7.03-3.805c6.448,0,414.494,15.807,441.603,16.881
	L21.437,34.48z"/>
<path fill="#0A0909" d="M1010,45.078H0c0,0,0,0.381,0-4.488s5.474-6.6,6.515-6.6c0.519,0,245.294-6.457,491.607-12.924
	C745.179,14.58,993.783,8.083,999.019,8.083c10.455,0,10.981,1.835,10.981,6.851C1010,17.62,1010,45.078,1010,45.078z"/>
</svg>
