<?xml version="1.0" encoding="utf-8"?>
<!-- Generator: Adobe Illustrator 16.0.0, SVG Export Plug-In . SVG Version: 6.00 Build 0)  -->
<!DOCTYPE svg PUBLIC "-//W3C//DTD SVG 1.1//EN" "http://www.w3.org/Graphics/SVG/1.1/DTD/svg11.dtd">
<svg xmlns="http://www.w3.org/2000/svg" xmlns:xlink="http://www.w3.org/1999/xlink" width="142.311px" height="369.946px">
<g opacity="0.6">
	<g id="triangle36_3830_">
		<path d="M23.366,7.405c-2.153-1.159-4.667-2.258-7.689-3.363C10.797,2.417,5.56,1.076,0,0.003v0.138
			c5.542,1.07,10.765,2.407,15.629,4.027c2.623,0.959,4.865,1.914,6.816,2.907C15.236,4.521,7.719,2.445,0,0.844v0.154
			C8.036,2.66,15.846,4.834,23.313,7.527c0.032,0.012,0.07-0.003,0.085-0.036c0.003-0.009,0.006-0.018,0.006-0.027
			C23.404,7.44,23.389,7.417,23.366,7.405z"/>
	</g>
	<g id="triangle36_3829_">
		<path d="M15.676,4.042C10.389,2.224,5.155,0.693,0-0.565v0.164c3.189,0.779,6.399,1.627,9.644,2.622
			C6.554,1.379,3.33,0.651,0,0.008v0.132c5.545,1.07,10.768,2.408,15.632,4.029c0.036,0.012,0.074-0.007,0.085-0.042
			C15.72,4.12,15.72,4.113,15.72,4.105C15.72,4.078,15.703,4.051,15.676,4.042z"/>
	</g>
	<g id="triangle36_3828_">
		<path d="M100.177,296.387c0,0.015-0.003,0.029-0.012,0.042c-7.945,10.509-17.035,20.191-27.013,28.779
			c-0.026,0.023-0.07,0.021-0.094-0.006c-0.026-0.026-0.023-0.07,0.003-0.094c10.5-9.87,18.827-21.089,24.748-33.347
			c0.009-0.021,0.029-0.035,0.053-0.038c0.021-0.003,0.044,0.006,0.059,0.023c1.338,1.522,2.118,3.127,2.256,4.635
			C100.177,296.384,100.177,296.384,100.177,296.387z M75.194,323.245c9.131-8.104,17.48-17.134,24.845-26.878
			c-0.138-1.446-0.883-2.987-2.153-4.457C92.349,303.344,84.724,313.874,75.194,323.245z"/>
	</g>
	<g id="triangle36_3827_">
		<path d="M75.866,43.949c0,0.012-0.003,0.022-0.009,0.033c-0.012,0.026-0.044,0.04-0.07,0.033
			c-0.472-0.098-0.954-0.197-1.44-0.299L74,43.644c-0.015-0.002-0.026-0.01-0.035-0.021C60.495,28.73,42.589,16.46,22.181,8.141
			v0l0,0v0c-0.035-0.013-0.053-0.052-0.035-0.087c0.012-0.034,0.053-0.051,0.085-0.037c20.678,8.304,39.218,20.713,53.618,35.886
			C75.86,43.917,75.866,43.933,75.866,43.949z M74.047,43.517l0.326,0.067c0.417,0.085,0.827,0.171,1.229,0.256
			C65.38,33.102,53.081,23.756,39.417,16.279C52.729,23.728,64.5,32.964,74.047,43.517z"/>
	</g>
	<g id="triangle36_3826_">
		<path d="M22.23,8.016C14.999,5.347,7.558,3.152,0,1.435v0.146c6.214,1.409,12.349,3.14,18.349,5.196
			C12.387,4.943,6.255,3.399,0,2.085v0.131c7.605,1.6,15.019,3.558,22.187,5.926c0.032,0.012,0.07-0.007,0.082-0.041
			c0.003-0.007,0.006-0.016,0.006-0.022C22.274,8.051,22.257,8.026,22.23,8.016z"/>
	</g>
	<g id="triangle36_3825_">
		<path d="M23.398,7.443c-0.006-0.02-0.021-0.035-0.042-0.042C15.87,4.698,8.045,2.513,0,0.845v0.149
			C8.004,2.65,15.788,4.816,23.225,7.496c-0.164,0.184-0.49,0.349-1.018,0.512C14.984,5.342,7.549,3.151,0,1.436v0.15
			c7.543,1.711,14.969,3.894,22.184,6.555c0.012,0.006,0.029,0.006,0.041,0.001c0.637-0.196,1.006-0.4,1.168-0.642
			c0.006-0.011,0.012-0.024,0.012-0.037C23.404,7.457,23.401,7.45,23.398,7.443z"/>
	</g>
	<g id="triangle36_3824_">
		<path d="M73.108,325.087c-0.023,0-0.044,0.012-0.056,0.029c-15.245,12.519-32,22.629-49.789,30.049
			c-7.329,2.702-15.154,5.058-23.263,7.047v0.141c7.003-1.713,13.798-3.706,20.244-5.961C13.558,359.045,6.783,361.26,0,363.058
			v0.173c7.813-2.077,15.626-4.735,23.31-7.939c20.69-7.631,37.461-17.753,49.845-30.087c0.015-0.012,0.021-0.029,0.021-0.047
			v-0.003C73.175,325.117,73.143,325.087,73.108,325.087z M26.276,354.025c16.269-7.103,31.637-16.474,45.74-27.89
			C60.369,337.392,45.001,346.763,26.276,354.025z"/>
	</g>
	<g id="triangle36_3823_">
		<path d="M126.195,108.369c0,3.813-2.239,8.041-6.475,12.23c-4.025,3.981-9.673,7.773-16.328,10.966
			c-0.023,0.01-0.05,0.009-0.067-0.005c-0.021-0.013-0.023-0.038-0.029-0.06c0.291-3.318,0.437-6.696,0.437-10.042
			c0-28.733-10.85-57.104-29.768-77.834c-0.023-0.026-0.023-0.064,0-0.091c0.023-0.025,0.062-0.029,0.091-0.008
			c23.028,17.618,40.949,39.195,51.822,62.4C126.089,106.721,126.195,107.541,126.195,108.369z M103.439,131.392
			c6.596-3.175,12.191-6.939,16.187-10.89c4.21-4.163,6.435-8.359,6.435-12.134c0-0.816-0.103-1.624-0.308-2.4
			c-10.768-22.974-28.459-44.362-51.186-61.883c9.256,10.283,16.515,22.228,21.579,35.513c5.123,13.445,7.722,27.53,7.722,41.858
			C103.868,124.768,103.724,128.109,103.439,131.392z"/>
	</g>
	<g id="triangle36_3822_">
		<path d="M125.884,105.952c0,0.026-0.015,0.05-0.038,0.062c-0.035,0.016-0.073,0.001-0.091-0.032l0,0
			c-10.865-23.185-28.771-44.745-51.781-62.35c-0.026-0.019-0.035-0.052-0.021-0.081c0.012-0.028,0.044-0.044,0.073-0.038
			l0.346,0.071c0.49,0.101,0.968,0.201,1.44,0.301c0.012,0.001,0.021,0.006,0.026,0.012
			c21.943,17.386,39.248,38.834,50.039,62.027C125.881,105.933,125.884,105.942,125.884,105.952z M74.288,43.704
			c16.714,12.826,30.724,27.737,41.289,43.843c-10.324-16.068-23.835-30.879-39.808-43.535c-0.466-0.098-0.939-0.197-1.423-0.296
			L74.288,43.704z"/>
	</g>
	<g id="triangle36_3821_">
		<path d="M111.998,251.674c0,0.003,0,0.009-0.003,0.012c-2.6,14.241-7.332,27.746-14.065,40.136
			c-0.015,0.026-0.044,0.038-0.073,0.032c-6.097-1.329-14.567-2.409-23.442-3.488c-0.026-0.003-0.047-0.021-0.056-0.047
			c-0.006-0.029,0.003-0.056,0.023-0.07c15.148-12.234,27.409-24.208,37.487-36.604c0.012-0.023,0.032-0.041,0.062-0.041
			c0.038,0,0.067,0.029,0.067,0.067C111.998,251.674,111.998,251.674,111.998,251.674z M97.835,291.713
			c6.672-12.29,11.375-25.678,13.98-39.793c-10.025,12.302-22.207,24.19-37.226,36.331
			C83.386,289.322,91.771,290.394,97.835,291.713z"/>
	</g>
	<g id="triangle36_3820_">
		<path d="M74.49,288.295c0,0.003,0,0.003,0,0.003c0,0.006,0,0.012-0.003,0.018c-2.726,10.459-6.777,20.162-12.046,28.841
			c-0.015,0.026-0.047,0.038-0.077,0.029c-0.029-0.006-0.047-0.032-0.05-0.064c-0.044-8.271-3.875-17.624-11.39-27.799
			c-0.012-0.021-0.018-0.047-0.006-0.067c0.012-0.023,0.035-0.038,0.059-0.038c8.35-0.247,16.231-0.575,23.422-0.983
			c0.006-0.003,0.015-0.003,0.023-0.003C74.46,288.231,74.49,288.26,74.49,288.295z M62.449,316.884
			c5.184-8.59,9.183-18.182,11.885-28.512c-7.135,0.402-14.949,0.73-23.225,0.977C58.518,299.406,62.332,308.669,62.449,316.884z
			"/>
	</g>
	<g id="triangle36_3819_">
		<path d="M97.938,291.787c0,0.021-0.009,0.038-0.023,0.053c-9.881,8.688-21.494,16.976-35.498,25.34
			c-0.026,0.015-0.059,0.012-0.082-0.012c-0.021-0.021-0.023-0.056-0.009-0.082c5.261-8.667,9.31-18.358,12.032-28.803
			c0.009-0.035,0.041-0.056,0.073-0.05c8.875,1.08,17.352,2.16,23.454,3.489c0.023,0.006,0.044,0.026,0.05,0.05
			C97.938,291.778,97.938,291.784,97.938,291.787z M62.581,316.925c13.845-8.282,25.346-16.495,35.146-25.1
			c-6.076-1.312-14.464-2.382-23.254-3.45C71.77,298.717,67.771,308.323,62.581,316.925z"/>
	</g>
	<g id="triangle36_3818_">
		<path d="M97.938,291.787c0,0.012-0.003,0.021-0.009,0.032c-5.93,12.272-14.265,23.507-24.774,33.385
			c-0.021,0.021-0.053,0.026-0.076,0.012c-0.026-0.012-0.044-0.041-0.038-0.067c0.012-0.088,0.018-0.176,0.018-0.267
			c0-2.353-3.799-5.087-10.7-7.696c-0.023-0.012-0.041-0.032-0.041-0.059c0-0.029,0.009-0.05,0.032-0.064
			c13.989-8.353,25.593-16.636,35.466-25.314c0.012-0.018,0.032-0.029,0.056-0.029c0.038,0,0.067,0.029,0.067,0.064
			C97.938,291.787,97.938,291.787,97.938,291.787z M73.19,324.987c10.354-9.758,18.587-20.834,24.475-32.928
			c-9.799,8.582-21.294,16.782-35.128,25.047c6.871,2.617,10.656,5.375,10.656,7.775C73.193,324.917,73.19,324.952,73.19,324.987
			z"/>
	</g>
	<g id="triangle36_3817_">
		<path d="M8.382,242.849c-2.767-1.042-5.578-2.095-8.382-3.145v0.144c2.731,1.024,5.469,2.051,8.168,3.063
			c-2.726,1.024-5.451,2.034-8.168,3.028v0.144c2.787-1.021,5.586-2.054,8.382-3.107c0.026-0.009,0.044-0.035,0.044-0.065
			C8.426,242.884,8.409,242.857,8.382,242.849z"/>
	</g>
	<g id="triangle36_3816_">
		<path d="M0.725,167.091c-0.003-0.023-0.018-0.042-0.041-0.051c-0.021-0.01-0.044-0.007-0.062,0.007
			c-0.206,0.142-0.417,0.281-0.622,0.422v0.164c0.2-0.14,0.408-0.275,0.607-0.415c4.313,27.511,6.824,52.241,7.681,75.595
			c-2.738-1.03-5.516-2.071-8.289-3.11v0.144c2.79,1.044,5.583,2.092,8.335,3.128c0.021,0.009,0.044,0.003,0.062-0.009
			c0.021-0.012,0.029-0.032,0.029-0.056l0,0C7.572,219.489,5.052,194.688,0.725,167.091z"/>
	</g>
	<g id="triangle36_3815_">
		<path d="M53.7,220.398c0,0.006-0.003,0.009-0.003,0.012c-0.003,0.021-0.015,0.038-0.033,0.047
			c-13.197,7.312-28.007,14.678-45.279,22.515c-0.018,0.009-0.041,0.009-0.062-0.003c-0.018-0.012-0.032-0.032-0.032-0.056
			C7.438,219.5,4.92,194.706,0.593,167.111c-0.006-0.026,0.009-0.057,0.035-0.07s0.056-0.009,0.076,0.011
			c18.302,17.34,37.229,35.272,52.979,53.301C53.691,220.366,53.7,220.384,53.7,220.398z M8.423,242.808
			c17.196-7.804,31.951-15.142,45.104-22.427c-15.694-17.956-34.536-35.818-52.77-53.095
			C5.058,194.767,7.566,219.474,8.423,242.808z"/>
	</g>
	<g id="triangle36_3814_">
		<path d="M114.896,266.787L114.896,266.787c0,2.183-0.19,4.345-0.569,6.425c0,0.009-0.006,0.018-0.012,0.03
			c-4.741,6.275-10.26,12.534-16.398,18.595c-0.023,0.023-0.062,0.026-0.088,0.006s-0.035-0.056-0.018-0.085
			c6.728-12.378,11.454-25.869,14.05-40.096c0.006-0.029,0.029-0.053,0.062-0.056c0.029-0.003,0.056,0.018,0.067,0.044
			C113.919,256.685,114.896,261.775,114.896,266.787z M114.198,273.171c0.375-2.065,0.563-4.213,0.563-6.384
			c0-4.92-0.945-9.919-2.808-14.863c-2.582,14.001-7.227,27.289-13.807,39.5C104.146,285.467,109.544,279.33,114.198,273.171z"/>
	</g>
	<g id="triangle36_3813_">
		<path d="M114.33,273.2c0,0.009-0.003,0.021-0.009,0.03c-4.134,8.153-8.896,15.958-14.156,23.195
			c-0.018,0.024-0.044,0.033-0.074,0.027c-0.026-0.009-0.047-0.03-0.05-0.059c-0.135-1.479-0.903-3.057-2.224-4.559
			c-0.023-0.026-0.021-0.067,0.006-0.094c6.132-6.056,11.645-12.308,16.383-18.581c0.021-0.029,0.062-0.035,0.091-0.018
			C114.318,273.153,114.33,273.177,114.33,273.2z M100.159,296.206c5.073-6.992,9.679-14.514,13.701-22.366
			c-4.626,6.062-9.972,12.097-15.899,17.953C99.223,293.245,99.98,294.765,100.159,296.206z"/>
	</g>
	<g id="triangle36_3812_">
		<path d="M35.205,12.151c0,0.008-0.003,0.018-0.006,0.026c-0.015,0.034-0.053,0.049-0.088,0.035
			c-3.315-1.418-7.299-2.673-12.921-4.069c-0.029-0.008-0.05-0.034-0.05-0.063c-0.006-0.038,0.018-0.057,0.047-0.066
			c0.604-0.187,0.951-0.374,1.091-0.587c0.018-0.026,0.05-0.037,0.079-0.026c4.313,1.493,8.177,3.026,11.806,4.688
			C35.19,12.101,35.205,12.125,35.205,12.151z M22.451,8.069c3.952,0.987,7.091,1.906,9.761,2.865
			c-2.764-1.176-5.686-2.294-8.852-3.39C23.21,7.738,22.917,7.908,22.451,8.069z"/>
	</g>
	<g id="triangle36_3811_">
		<path d="M35.205,12.151c0,0.009-0.003,0.018-0.006,0.028c-0.018,0.034-0.056,0.048-0.091,0.032
			c-3.626-1.66-7.484-3.192-11.794-4.684c-2.156-1.159-4.668-2.256-7.684-3.359c-0.035-0.012-0.053-0.052-0.038-0.085
			c0.012-0.035,0.05-0.053,0.085-0.041c6.813,2.372,13.37,5.08,19.49,8.048C35.19,12.102,35.205,12.125,35.205,12.151z
			 M19.66,5.622c1.35,0.585,2.579,1.177,3.706,1.783c2.644,0.913,5.117,1.844,7.473,2.81C27.233,8.588,23.495,7.053,19.66,5.622z
			"/>
	</g>
	<g id="triangle36_3810_">
		<path d="M75.866,43.949c0,0.021-0.009,0.04-0.023,0.053c-0.029,0.022-0.067,0.02-0.091-0.006
			c-14.388-15.16-32.91-27.558-53.571-35.854c-0.032-0.012-0.05-0.05-0.038-0.084s0.047-0.052,0.082-0.042
			c7.141,1.925,12.496,3.816,16.847,5.951c16.902,8.647,29.278,18.722,36.783,29.947C75.863,43.923,75.866,43.936,75.866,43.949z
			 M23.278,8.441c19.989,8.19,37.939,20.224,52.013,34.876C67.756,32.381,55.554,22.549,39.01,14.085
			C34.891,12.065,29.871,10.262,23.278,8.441z"/>
	</g>
	<g id="triangle36_3809_">
		<path d="M39.106,14.025c0,0.01,0,0.02-0.006,0.03c-0.018,0.034-0.056,0.047-0.091,0.031l0,0c0-0.001,0-0.001,0-0.001
			c-4.342-2.131-9.688-4.018-16.82-5.941c-0.035-0.01-0.056-0.047-0.05-0.082c0.012-0.036,0.047-0.057,0.082-0.049
			c5.627,1.398,9.621,2.655,12.941,4.076c1.156,0.53,2.397,1.125,3.908,1.877C39.095,13.977,39.106,14.001,39.106,14.025z
			 M29.533,10.176c1.816,0.596,3.494,1.199,5.052,1.815C33.074,11.366,31.417,10.77,29.533,10.176z"/>
	</g>
	<g id="triangle36_3808_">
		<path d="M39.106,14.025c0,0.01,0,0.021-0.006,0.03c-0.018,0.034-0.056,0.047-0.091,0.031c-1.508-0.752-2.746-1.347-3.902-1.875
			C28.993,9.245,22.442,6.54,15.632,4.169l0,0l0,0c-0.035-0.012-0.056-0.052-0.041-0.086c0.012-0.035,0.05-0.053,0.085-0.042
			c8.006,2.772,15.878,6.111,23.395,9.924C39.095,13.977,39.106,14.001,39.106,14.025z"/>
	</g>
	<g id="triangle36_3807_">
		<path d="M49.387,19.91c0,0.012-0.003,0.025-0.012,0.036c-0.018,0.032-0.059,0.042-0.091,0.021
			C41.486,15.242,33.333,11.12,25.05,7.716l0,0c-3.092-1.26-6.261-2.454-9.418-3.546c-0.035-0.012-0.056-0.05-0.041-0.086
			c0.012-0.035,0.05-0.053,0.085-0.042l0,0l0,0C18.821,5.12,21.993,6.313,25.1,7.59c0,0,0.003,0.001,0.003,0.001
			c4.732,1.929,9.433,4.073,13.968,6.374c3.67,1.834,7.132,3.815,10.287,5.889C49.375,19.868,49.387,19.889,49.387,19.91z"/>
	</g>
	<g id="triangle36_3806_">
		<path d="M141.868,181.066c0,16.001-2.092,31.927-6.22,47.333c-0.009,0.035-0.044,0.056-0.079,0.047
			c-0.035-0.009-0.059-0.044-0.05-0.08c3.04-12.642,4.58-25.725,4.58-38.889c0-8.852-0.704-17.76-2.092-26.481
			c-0.003-0.033,0.018-0.068,0.053-0.075c1.482-0.37,2.535-0.88,2.632-1.272l-0.018-0.158c0-0.038,0.018-0.064,0.05-0.071
			c0.032-0.01,0.064,0.006,0.079,0.037c0.026,0.063,0.035,0.13,0.023,0.2C141.516,168.057,141.868,174.587,141.868,181.066z
			 M136.73,223.582c3.321-13.898,5.002-28.175,5.002-42.516c0-6.402-0.343-12.854-1.018-19.182
			c-0.358,0.458-1.499,0.882-2.564,1.153c1.382,8.708,2.083,17.604,2.083,26.441C140.234,200.987,139.057,212.436,136.73,223.582
			z"/>
	</g>
	<g id="triangle36_3805_">
		<path d="M58.969,266.461c0,2.591-0.062,5.176-0.179,7.687c0,0.026-0.015,0.047-0.038,0.059
			c-0.024,0.012-0.05,0.009-0.071-0.009c-13.476-10.207-29.876-19.866-50.355-31.226c-0.021-0.015-0.035-0.035-0.035-0.062
			c0.006-0.023,0.018-0.05,0.041-0.059c17.266-7.839,32.074-15.201,45.268-22.512c0.018-0.009,0.038-0.012,0.059-0.003
			s0.033,0.027,0.039,0.047C57.194,236.867,58.969,252.37,58.969,266.461z M58.661,274.016c0.115-2.47,0.173-5.011,0.173-7.555
			c0-14.056-1.766-29.518-5.249-45.96c-13.147,7.282-27.893,14.614-45.077,22.415C28.888,254.224,45.224,263.847,58.661,274.016z
			"/>
	</g>
	<g id="triangle36_3804_">
		<path d="M58.791,274.145c0,0.012,0,0.021-0.006,0.029c-2.526,5.313-5.132,10.41-7.746,15.142
			c-0.012,0.021-0.032,0.035-0.059,0.035c-0.023,0-0.044-0.012-0.059-0.032c-10.33-16.28-26.584-31.9-42.606-46.359
			c-0.026-0.021-0.029-0.062-0.012-0.088c0.021-0.029,0.059-0.035,0.088-0.021c20.485,11.363,36.889,21.025,50.373,31.241
			C58.782,274.104,58.791,274.125,58.791,274.145z M50.974,289.152c2.588-4.688,5.167-9.729,7.667-14.987
			c-13.358-10.11-29.583-19.684-49.801-30.909C24.698,257.58,40.726,273.042,50.974,289.152z"/>
	</g>
	<g id="triangle36_3803_">
		<path d="M138.579,155.039L138.579,155.039c-0.018,2.667-0.165,5.344-0.438,7.954c-0.003,0.03-0.023,0.054-0.053,0.06
			c-0.029,0.006-0.059-0.008-0.073-0.035c-5.451-10.172-16.151-19.874-34.688-31.456c-0.032-0.02-0.041-0.059-0.026-0.09
			c0.018-0.03,0.056-0.044,0.088-0.029c17.149,7.666,29.691,14.606,35.178,23.561
			C138.573,155.014,138.579,155.026,138.579,155.039z M138.03,162.762c0.258-2.532,0.396-5.123,0.414-7.705
			c-5.381-8.763-17.565-15.601-34.224-23.095C122.158,143.259,132.617,152.789,138.03,162.762z"/>
	</g>
	<g id="triangle36_3802_">
		<path d="M138.579,155.039c0,0.028-0.021,0.054-0.047,0.064c-0.029,0.01-0.062-0.003-0.08-0.029
			c-5.469-8.925-17.994-15.852-35.119-23.508c-0.023-0.01-0.038-0.034-0.038-0.06v-0.001c0-0.025,0.015-0.05,0.038-0.061
			c6.64-3.186,12.276-6.969,16.292-10.941c4.21-4.163,6.435-8.359,6.435-12.134c0-0.816-0.103-1.624-0.308-2.4
			c-0.009-0.034,0.009-0.069,0.044-0.08c0.032-0.012,0.067,0.005,0.082,0.037c6.71,15.791,10.982,32.312,12.698,49.106
			C138.576,155.034,138.579,155.036,138.579,155.039z M103.521,131.502c16.923,7.57,29.342,14.44,34.893,23.253
			c-1.71-16.438-5.871-32.612-12.373-48.092c0.103,0.56,0.153,1.131,0.153,1.706c0,3.812-2.239,8.041-6.475,12.23
			C115.718,124.554,110.12,128.322,103.521,131.502z"/>
	</g>
	<g id="triangle36_3801_">
		<path d="M140.832,161.595L140.832,161.595c0,0.571-1.417,1.126-2.74,1.457c-0.021,0.006-0.044,0-0.062-0.014
			c-0.018-0.015-0.023-0.038-0.023-0.058c0.273-2.607,0.419-5.28,0.437-7.941c0-0.03,0.021-0.056,0.047-0.064
			c0.029-0.007,0.059,0.003,0.076,0.028c1.353,2.085,2.127,4.321,2.238,6.466C140.823,161.51,140.832,161.551,140.832,161.595z
			 M138.15,162.897c1.505-0.385,2.547-0.916,2.547-1.303l0,0c0-0.029-0.006-0.056-0.018-0.083
			c-0.003-0.007-0.006-0.016-0.006-0.023c-0.105-2.061-0.833-4.208-2.098-6.222C138.553,157.825,138.412,160.391,138.15,162.897z
			"/>
	</g>
	<g id="triangle36_3800_">
		<path d="M138.646,152.313c0,0.908-0.023,1.827-0.07,2.729c0,0.036-0.029,0.063-0.064,0.065c-0.036,0-0.065-0.026-0.068-0.061
			c-1.716-16.78-5.985-33.289-12.689-49.067c-0.018-0.033,0-0.073,0.035-0.088c0.032-0.014,0.073,0,0.088,0.034
			c4.935,11.008,8.781,22.531,11.431,34.248C138.195,144.19,138.646,148.275,138.646,152.313z M138.482,154.119
			c0.018-0.602,0.03-1.206,0.03-1.806c0-4.028-0.449-8.103-1.335-12.112c-2.166-9.589-5.138-19.047-8.852-28.2
			C133.524,125.645,136.936,139.779,138.482,154.119z"/>
	</g>
	<g id="triangle36_3799_">
		<path d="M140.809,161.483c0,0.036-0.026,0.064-0.062,0.067c-0.038,0.002-0.07-0.024-0.073-0.06
			c-0.041-0.39-0.082-0.777-0.123-1.166c-0.282-1.753-1.006-3.568-2.098-5.25c-0.006-0.012-0.015-0.025-0.009-0.04
			c0.044-0.9,0.068-1.817,0.068-2.722c0-4.028-0.449-8.103-1.335-12.112l0,0l0,0c-0.003-0.036,0.018-0.073,0.053-0.08
			c0.035-0.008,0.07,0.015,0.079,0.051c1.499,6.637,2.635,13.412,3.374,20.136c0.064,0.392,0.105,0.786,0.126,1.172
			C140.809,161.482,140.809,161.482,140.809,161.483z M138.579,155.02c0.83,1.285,1.449,2.646,1.822,4
			c-0.569-4.859-1.347-9.737-2.315-14.566c0.373,2.62,0.561,5.249,0.561,7.859C138.646,153.214,138.623,154.124,138.579,155.02z"
			/>
	</g>
	<g id="triangle36_3798_">
		<path d="M94.878,154.729c0,0.001,0,0.004,0,0.006c0,0.029-0.023,0.053-0.05,0.06c-24.542,5.526-55.346,9.574-94.165,12.374
			c-0.026,0.001-0.053-0.013-0.064-0.037c-0.012-0.024-0.009-0.052,0.009-0.073c11.187-13.446,20.136-25.736,27.365-37.575
			c0.015-0.027,0.05-0.04,0.079-0.028c4.014,1.464,8.042,2.924,11.936,4.336c19.558,7.093,38.03,13.792,54.85,20.874
			C94.863,154.677,94.878,154.702,94.878,154.729z M0.81,167.022c38.631-2.79,69.314-6.819,93.784-12.314
			c-16.765-7.051-35.172-13.726-54.65-20.79c-3.879-1.406-7.89-2.861-11.886-4.318C20.854,141.395,11.941,153.638,0.81,167.022z"
			/>
	</g>
	<g id="triangle36_3797_">
		<path d="M94.878,154.729c0,0.009,0,0.016-0.003,0.025c-8.18,20.94-21.652,42.429-41.192,65.689
			c-0.012,0.015-0.033,0.023-0.05,0.023c-0.021,0-0.038-0.009-0.053-0.023c-15.744-18.023-34.667-35.953-52.966-53.293
			c-0.021-0.018-0.026-0.045-0.018-0.07c0.009-0.026,0.032-0.042,0.059-0.045c38.813-2.8,69.608-6.846,94.142-12.372
			c0.026-0.005,0.05,0.003,0.067,0.022C94.875,154.697,94.878,154.712,94.878,154.729z M53.629,220.295
			c19.467-23.184,32.904-44.602,41.072-65.474c-24.489,5.506-55.199,9.541-93.886,12.335
			C19.065,184.449,37.924,202.322,53.629,220.295z"/>
	</g>
	<g id="triangle36_3796_">
		<path d="M103.43,131.504c0,0.006,0,0.012-0.003,0.017c-1.954,7.615-4.832,15.433-8.555,23.237
			c-0.015,0.032-0.053,0.047-0.085,0.033c-16.817-7.082-35.29-13.78-54.844-20.872c-3.896-1.413-7.925-2.873-11.938-4.336
			c-0.029-0.011-0.05-0.046-0.041-0.077c0.006-0.033,0.035-0.056,0.067-0.054c27.638,1.629,52.976,2.297,75.309,1.986
			c0.009-0.003,0.015-0.004,0.023-0.004c0.038,0,0.067,0.03,0.067,0.067C103.43,131.502,103.43,131.502,103.43,131.504z
			 M94.778,154.641c3.694-7.747,6.551-15.507,8.497-23.069c-22.198,0.308-47.36-0.351-74.792-1.959
			c3.873,1.411,7.749,2.817,11.504,4.179C59.524,140.876,77.976,147.567,94.778,154.641z"/>
	</g>
	<g id="triangle36_3795_">
		<path d="M138.142,162.986c0,0.016-0.006,0.032-0.018,0.045c-0.018,0.021-0.05,0.028-0.073,0.017
			c-3.609-1.465-8.729-2.565-15.82-3.865c-7.549-1.387-16.09-2.708-27.429-4.388c-0.021-0.004-0.038-0.016-0.05-0.035
			c-0.009-0.019-0.009-0.042,0-0.061c3.72-7.795,6.595-15.605,8.546-23.212c0.003-0.021,0.018-0.038,0.038-0.045
			c0.021-0.008,0.044-0.007,0.062,0.006c18.56,11.595,29.272,21.312,34.735,31.507
			C138.139,162.964,138.142,162.975,138.142,162.986z M94.91,154.676c11.296,1.674,19.816,2.99,27.344,4.375
			c6.989,1.281,12.064,2.369,15.673,3.804c-5.472-10.1-16.131-19.747-34.524-31.245C101.458,139.17,98.601,146.929,94.91,154.676
			z"/>
	</g>
	<g id="triangle36_3794_">
		<path d="M138.145,163.895c0,29.021-9.045,59.387-26.156,87.814c-0.018,0.026-0.053,0.038-0.083,0.029
			c-0.029-0.012-0.047-0.038-0.044-0.074c0.86-6.076,1.297-12.407,1.297-18.824c0-24.355-6.367-51.356-18.407-78.085
			c-0.012-0.022-0.009-0.048,0.006-0.068c0.015-0.019,0.038-0.029,0.064-0.026c11.339,1.681,19.883,3.001,27.432,4.389
			c7.1,1.301,12.229,2.403,15.846,3.873c0.023,0.01,0.041,0.035,0.041,0.063C138.145,163.291,138.145,163.59,138.145,163.895z
			 M112.042,251.357c16.99-28.328,25.968-58.562,25.968-87.462c0-0.29,0-0.575-0.003-0.863
			c-3.606-1.458-8.714-2.554-15.776-3.849c-7.52-1.383-16.031-2.698-27.306-4.37c5.844,12.989,10.372,26.039,13.455,38.792
			c3.26,13.49,4.915,26.69,4.915,39.236C113.294,239.146,112.872,245.375,112.042,251.357z"/>
	</g>
	<g id="triangle36_3793_">
		<path d="M125.884,105.952c0,0.026-0.015,0.051-0.041,0.062c-0.032,0.016-0.073,0-0.088-0.032
			c-10.782-23.175-28.072-44.606-49.998-61.979c-0.026-0.02-0.032-0.054-0.018-0.083c0.015-0.029,0.05-0.042,0.079-0.033
			c4.04,1.25,8.139,2.673,10.776,4.6c8.221,8.178,15.726,17.207,22.322,26.846c6.607,9.657,12.311,19.951,16.961,30.595
			C125.881,105.934,125.884,105.942,125.884,105.952z M76.124,44.12c20.371,16.204,36.724,35.917,47.547,57.268
			c-9.166-19.49-21.946-37.661-37.164-52.802C83.97,46.733,80.038,45.341,76.124,44.12z"/>
	</g>
	<g id="triangle36_3792_">
		<path d="M86.622,48.538c0,0.016-0.006,0.032-0.015,0.045c-0.023,0.026-0.064,0.031-0.091,0.01
			c-2.62-1.916-6.71-3.333-10.735-4.58c-0.015-0.004-0.029-0.014-0.038-0.027c-7.49-11.204-19.851-21.264-36.733-29.9
			c-0.032-0.016-0.044-0.058-0.029-0.09c0.018-0.033,0.059-0.046,0.091-0.029l0,0c17.806,9.015,33.796,20.631,47.53,34.525
			C86.616,48.504,86.622,48.521,86.622,48.538z M75.842,43.892c3.738,1.158,7.526,2.463,10.155,4.181
			C75.021,37.058,62.616,27.488,49.006,19.532C60.894,26.838,69.896,35.004,75.842,43.892z"/>
	</g>
	<g id="triangle36_3791_">
		<path d="M86.622,48.538c0,0.018-0.006,0.035-0.021,0.049c-0.026,0.025-0.067,0.025-0.094-0.001
			c-5.038-5.096-10.48-9.968-16.181-14.48c-6.478-5.051-13.558-9.809-21.042-14.137c-2.388-1.571-4.958-3.092-7.64-4.523l0,0
			c-0.872-0.459-1.757-0.916-2.635-1.36c-0.032-0.016-0.047-0.057-0.029-0.089c0.018-0.034,0.059-0.047,0.091-0.03
			c0.889,0.443,1.775,0.902,2.635,1.361l0,0c10.128,5.333,19.787,11.615,28.703,18.674c5.851,4.563,11.299,9.438,16.195,14.491
			C86.616,48.505,86.622,48.521,86.622,48.538z M47.462,18.644c0.643,0.399,1.273,0.804,1.896,1.211
			c3.063,1.771,6.056,3.614,8.972,5.521C54.789,23.011,51.162,20.763,47.462,18.644z"/>
	</g>
	<g id="triangle36_3790_">
		<path d="M77.89,228.804c0,0.006,0,0.015-0.003,0.021c-5.011,15.441-11.439,30.698-19.103,45.353
			c-0.015,0.029-0.047,0.042-0.08,0.032c-0.029-0.006-0.05-0.032-0.05-0.064c0,0,0,0,0-0.003
			c0.121-2.508,0.179-5.093,0.179-7.681c0-14.083-1.772-29.574-5.27-46.048c-0.006-0.023,0.003-0.047,0.021-0.065
			c0.018-0.015,0.044-0.021,0.067-0.012c9.632,3.201,17.322,5.871,24.196,8.403C77.875,228.751,77.89,228.777,77.89,228.804z
			 M58.805,273.846c7.59-14.546,13.959-29.683,18.936-45c-6.83-2.518-14.467-5.17-24.02-8.344
			c3.482,16.439,5.249,31.901,5.249,45.96C58.969,268.946,58.914,271.428,58.805,273.846z"/>
	</g>
	<g id="triangle36_3789_">
		<path d="M94.878,154.729c0,0,0,0.003,0,0.004c-1.329,23.851-7.047,48.78-16.991,74.095c-0.015,0.035-0.053,0.053-0.085,0.041
			c-6.874-2.532-14.558-5.205-24.193-8.406c-0.021-0.006-0.035-0.023-0.041-0.047c-0.006-0.021-0.003-0.044,0.012-0.059
			c19.528-23.249,32.992-44.719,41.167-65.644c0.006-0.031,0.032-0.056,0.064-0.056c0.038,0,0.067,0.03,0.067,0.067
			C94.878,154.727,94.878,154.728,94.878,154.729z M77.785,228.719c9.867-25.135,15.564-49.883,16.938-73.574
			c-8.186,20.796-21.594,42.134-40.975,65.222C63.309,223.546,70.952,226.202,77.785,228.719z"/>
	</g>
	<g id="triangle36_3788_">
		<path d="M113.294,232.841c0,6.422-0.438,12.762-1.3,18.845c-0.003,0.023-0.021,0.047-0.044,0.053
			c-0.026,0.009-0.053,0-0.071-0.018c-6.701-7.218-16.894-14.054-34.086-22.858c-0.032-0.015-0.044-0.05-0.032-0.083
			c9.94-25.305,15.653-50.22,16.985-74.056c0-0.031,0.023-0.057,0.053-0.063c0.032-0.005,0.062,0.01,0.073,0.04
			c5.871,13.026,10.416,26.115,13.508,38.904C111.64,207.096,113.294,220.295,113.294,232.841z M111.883,251.524
			c0.848-6.032,1.276-12.317,1.276-18.683c0-24.279-6.326-51.186-18.296-77.834c-1.358,23.75-7.062,48.565-16.956,73.764
			C95.001,237.529,105.176,244.342,111.883,251.524z"/>
	</g>
	<g id="triangle36_3787_">
		<path d="M8.359,242.84c-0.015,0-0.029,0.006-0.041,0.015c-2.776,1.044-5.551,2.071-8.318,3.083v0.144
			c2.758-1.009,5.524-2.033,8.292-3.072C8.156,273.514,5.439,298.532,0,319.29v0.517c5.533-20.887,8.294-46.095,8.426-76.896l0,0
			C8.429,242.878,8.397,242.84,8.359,242.84z"/>
	</g>
	<g id="triangle36_3786_">
		<path d="M51.036,289.249c-10.339-16.295-26.599-31.924-42.63-46.389c-0.021-0.018-0.05-0.021-0.073-0.009
			c-0.023,0.009-0.041,0.032-0.041,0.059C8.159,273.456,5.442,298.503,0,319.281v0.52c5.521-20.852,8.286-46.01,8.426-76.737
			c15.969,14.412,32.153,29.982,42.463,46.204C32.925,302.37,15.157,313.551,0,322.822v0.155
			c15.189-9.289,33.007-20.497,51.021-33.641c0.018-0.012,0.026-0.032,0.026-0.053C51.048,289.272,51.045,289.261,51.036,289.249
			z"/>
	</g>
	<g id="triangle36_3785_">
		<path d="M112.156,251.51c0,0.012-0.003,0.023-0.009,0.032c-0.009,0.021-0.029,0.035-0.053,0.035
			c-5.172,0.499-11.002,1.024-17.178,1.579c-5.331,0.481-10.847,0.977-16.809,1.531c-0.026,0.003-0.053-0.009-0.064-0.032
			c-0.015-0.023-0.012-0.053,0.003-0.073c5.73-8.057,10.926-16.022,15.444-23.674c0.009-0.018,0.026-0.026,0.044-0.032
			c0.021-0.003,0.041,0.003,0.056,0.015c8.505,6.859,14.752,13.787,18.557,20.587
			C112.153,251.489,112.156,251.498,112.156,251.51z M78.239,254.541c5.909-0.552,11.375-1.042,16.665-1.517
			c6.132-0.552,11.926-1.077,17.076-1.57c-3.794-6.745-9.987-13.611-18.417-20.412C89.078,238.639,83.922,246.542,78.239,254.541
			z"/>
	</g>
	<g id="triangle36_3784_">
		<path d="M112.156,251.51c0,0.021-0.009,0.038-0.021,0.05c-11.008,10.195-24.8,20.541-43.405,32.552
			c-0.023,0.015-0.056,0.015-0.079-0.006c-0.021-0.021-0.029-0.05-0.018-0.076c3.84-9.233,7.003-19.132,9.4-29.425
			c0.006-0.026,0.029-0.05,0.059-0.05c5.965-0.558,11.48-1.053,16.812-1.531c6.167-0.558,11.988-1.08,17.158-1.579
			c0.009-0.003,0.018-0.006,0.026-0.006c0.038,0,0.067,0.029,0.067,0.067C112.156,251.51,112.156,251.51,112.156,251.51z
			 M68.839,283.88c18.422-11.903,32.115-22.169,43.058-32.282c-5.125,0.49-10.888,1.009-16.981,1.558
			c-5.316,0.478-10.814,0.974-16.762,1.528C75.772,264.892,72.639,274.711,68.839,283.88z"/>
	</g>
	<g id="triangle36_3783_">
		<path d="M141.868,181.066c0,14.538-1.734,29.058-5.152,43.155c-0.064,1.399-0.434,2.849-1.071,4.189
			c-0.015,0.033-0.05,0.047-0.085,0.036c-0.032-0.015-0.05-0.047-0.041-0.083c0.37-1.373,0.725-2.775,1.062-4.16
			c0.032-0.786-0.026-1.573-0.185-2.321c-0.003-0.012-0.003-0.021,0-0.029c3.436-13.951,5.176-28.295,5.176-42.63
			c0-5.92-0.302-11.887-0.898-17.732l0,0l0,0c0-0.002,0-0.005,0-0.007c0-0.035,0.026-0.063,0.059-0.067
			c0.038-0.004,0.07,0.023,0.076,0.06C141.51,167.937,141.868,174.529,141.868,181.066z M136.725,223.611
			c3.321-13.907,5.008-28.219,5.008-42.545c0-1.171-0.012-2.341-0.035-3.512c0.006,0.558,0.009,1.115,0.009,1.669
			c0,14.341-1.743,28.691-5.175,42.648C136.648,222.435,136.713,223.018,136.725,223.611z M135.892,227.493
			c0.296-0.784,0.501-1.593,0.61-2.4C136.302,225.894,136.1,226.697,135.892,227.493z"/>
	</g>
	<g id="triangle36_3782_">
		<path d="M136.651,218.324c0,1.188-0.041,2.382-0.123,3.55c0,0.006-0.003,0.015-0.006,0.021
			c-4.081,9.521-12.059,19.226-24.39,29.668c-0.023,0.021-0.056,0.021-0.082,0.003c-0.023-0.015-0.035-0.047-0.026-0.076
			c6.519-19.684,9.826-40.656,9.826-62.332c0-4.234-0.129-8.526-0.387-12.763c0-0.003,0-0.003,0-0.006
			c0-0.026,0.018-0.053,0.047-0.062c0.026-0.012,0.059,0,0.076,0.023c4.803,6.742,8.535,13.731,11.096,20.775
			C135.316,204.361,136.651,211.494,136.651,218.324z M136.396,221.854c0.08-1.162,0.121-2.347,0.121-3.53
			c0-13.528-5.155-27.946-14.905-41.703c0.247,4.163,0.373,8.379,0.373,12.537c0,21.608-3.283,42.516-9.758,62.146
			C124.435,240.939,132.341,231.304,136.396,221.854z"/>
	</g>
	<g id="triangle36_3781_">
		<path d="M125.884,105.952c0,0.027-0.018,0.052-0.044,0.063c-0.032,0.013-0.07-0.003-0.085-0.036
			c-1.124-2.573-2.324-5.157-3.568-7.681c-3.174-5.5-7.661-10.962-13.338-16.235c-0.009-0.008-0.015-0.019-0.018-0.03
			c-2.772-8.392-7.367-16.536-13.651-24.202c-2.778-3.174-5.698-6.285-8.673-9.246c-0.026-0.025-0.026-0.068,0-0.094
			c0.026-0.026,0.067-0.027,0.094-0.002c3.146,2.95,6.064,6.063,8.682,9.254c10.735,12.26,19.828,25.884,27.021,40.49
			c1.476,2.556,2.679,5.146,3.577,7.696C125.884,105.937,125.884,105.945,125.884,105.952z M108.955,81.976
			c5.167,4.801,9.348,9.762,12.455,14.764c-6.578-13.049-14.682-25.292-24.123-36.459
			C102.559,67.206,106.479,74.492,108.955,81.976z"/>
		<path d="M123.654,101.029c0.355,0.754,0.708,1.511,1.051,2.27C124.382,102.542,124.03,101.786,123.654,101.029z"/>
	</g>
	<g id="triangle36_3780_">
		<path d="M108.964,82.013c0,0.025-0.015,0.048-0.035,0.061c-0.029,0.015-0.068,0.006-0.085-0.019
			C98,67.943,84.58,54.56,68.954,42.279c-0.026-0.019-0.035-0.051-0.021-0.082c0.012-0.028,0.041-0.045,0.073-0.038
			c9.583,1.695,15.87,3.347,17.604,6.336c10.697,10.04,18.428,21.622,22.351,33.496C108.961,82,108.964,82.006,108.964,82.013z
			 M69.247,42.339c15.43,12.151,28.703,25.377,39.458,39.317c-3.955-11.723-11.625-23.149-22.198-33.068
			c-0.003-0.004-0.006-0.009-0.012-0.015C84.814,45.649,78.65,44.012,69.247,42.339z"/>
	</g>
	<g id="triangle36_3779_">
		<path d="M86.622,48.538c0,0.021-0.009,0.041-0.026,0.055c-0.026,0.02-0.064,0.017-0.088-0.008
			c-0.563-0.58-1.141-1.167-1.719-1.742c-2.875-1.965-8.397-3.241-15.805-4.551c-0.023-0.004-0.041-0.018-0.05-0.04
			c-3.58-8.384-10.372-16.091-19.652-22.285c-0.029-0.021-0.038-0.062-0.021-0.092c0.021-0.032,0.062-0.041,0.091-0.023
			c13.54,7.832,25.493,16.877,35.524,26.887c0.79,0.542,1.376,1.136,1.737,1.766C86.619,48.515,86.622,48.527,86.622,48.538z
			 M69.042,42.166c6.983,1.237,12.293,2.444,15.301,4.234c-9.536-9.436-20.781-18.006-33.462-25.5
			C59.389,26.914,65.65,34.236,69.042,42.166z"/>
	</g>
	<g id="triangle36_3778_">
		<path d="M123.666,149.2c0,8.989-0.695,18.14-2.068,27.201c-0.006,0.032-0.035,0.059-0.07,0.056s-0.064-0.029-0.064-0.064
			c-1.227-50.619-20.368-99.504-52.518-134.121c-0.023-0.025-0.023-0.065,0-0.091s0.062-0.029,0.091-0.007
			c15.635,12.289,29.063,25.679,39.914,39.799C118.581,101.725,123.666,124.967,123.666,149.2z M121.577,175.621
			c1.3-8.806,1.957-17.69,1.957-26.421c0-24.213-5.084-47.436-14.699-67.158C98.155,68.145,84.964,54.944,69.623,42.807
			c7.687,8.36,14.731,17.695,20.948,27.757c6.305,10.203,11.78,21.195,16.28,32.668c4.504,11.488,8.042,23.497,10.513,35.695
			C119.819,151.03,121.236,163.371,121.577,175.621z"/>
	</g>
	<g id="triangle36_3777_">
		<path d="M69.062,42.227c0,0.022-0.015,0.044-0.035,0.058c-0.029,0.017-0.067,0.009-0.088-0.019
			c-12-16.455-29.254-29.209-49.9-36.888c-1.127-0.413-2.274-0.82-3.407-1.207c0-0.001,0-0.001,0-0.001l0,0l0,0
			c-0.035-0.012-0.056-0.05-0.041-0.086c0.012-0.035,0.05-0.053,0.085-0.042c1.135,0.384,2.285,0.791,3.409,1.209v0
			c10.386,3.812,20.573,8.724,30.27,14.601c9.3,6.21,16.113,13.937,19.701,22.346C69.059,42.208,69.062,42.217,69.062,42.227z
			 M27.265,8.645c7.03,3.231,13.649,7.118,19.766,11.609c8.435,6.197,15.72,13.41,21.658,21.446
			c-3.635-8.17-10.333-15.674-19.408-21.733C42.167,15.656,34.791,11.863,27.265,8.645z"/>
	</g>
	<g id="triangle36_3776_">
		<path d="M69.047,42.186c-6.34-8.696-14.232-16.424-23.454-22.97C36.554,12.798,26.488,7.693,15.676,4.042
			C10.715,2.336,5.73,0.854,0.866-0.361C0.578-0.439,0.288-0.502,0-0.578v0.151c0.276,0.068,0.552,0.125,0.83,0.195
			c24.716,6.683,48.906,21.777,68.115,42.502c0.023,0.026,0.064,0.029,0.091,0.007c0.018-0.013,0.026-0.033,0.026-0.051
			C69.062,42.212,69.056,42.198,69.047,42.186z M37.073,15.641C27.045,9.379,16.618,4.516,6.003,1.148
			c3.195,0.906,6.417,1.916,9.629,3.021c21.438,7.24,40.075,20.412,52.612,37.153C58.846,31.328,48.366,22.691,37.073,15.641z"/>
	</g>
	<g id="triangle36_3775_">
		<path d="M103.322,294.859c0,0.015-0.006,0.029-0.015,0.041c-8.652,10.994-18.801,21.189-30.158,30.311
			c-0.026,0.023-0.07,0.018-0.094-0.012c-0.023-0.026-0.018-0.067,0.009-0.094c9.973-8.579,19.053-18.255,26.992-28.759
			c0.009-0.009,0.018-0.018,0.029-0.023c1.37-0.516,2.362-0.998,3.116-1.511c0.012-0.015,0.032-0.023,0.053-0.023
			c0.038,0,0.067,0.029,0.067,0.064C103.322,294.856,103.322,294.856,103.322,294.859z M76.063,322.649
			c10.034-8.388,19.065-17.627,26.887-27.511c-0.713,0.437-1.617,0.859-2.796,1.306
			C92.991,305.917,84.899,314.716,76.063,322.649z"/>
	</g>
	<g id="triangle36_3774_">
		<path d="M114.33,273.2c0,0.006-0.003,0.015-0.003,0.021c-2.515,7.447-6.22,14.737-11.017,21.676
			c-0.006,0.006-0.012,0.012-0.018,0.018c-0.766,0.522-1.769,1.012-3.16,1.535c-0.027,0.012-0.059,0.003-0.077-0.021
			c-0.018-0.024-0.018-0.059,0-0.083c5.258-7.232,10.017-15.03,14.145-23.178c0.018-0.029,0.053-0.044,0.085-0.032
			C114.313,273.147,114.33,273.174,114.33,273.2z M103.208,294.809c4.591-6.643,8.18-13.611,10.679-20.726
			c-3.996,7.775-8.564,15.227-13.59,22.16C101.562,295.757,102.492,295.299,103.208,294.809z"/>
	</g>
	<g id="triangle36_3773_">
		<path d="M103.43,131.504c0,0.013-0.003,0.024-0.012,0.035c-0.012,0.02-0.032,0.032-0.056,0.032
			c-22.342,0.313-47.691-0.355-75.338-1.985c-0.023-0.001-0.044-0.014-0.056-0.034c-0.012-0.021-0.012-0.045,0-0.065
			c11.888-21.451,18.173-42.2,18.173-60.003c0-5.596-0.622-10.966-1.842-15.962c-0.009-0.031,0.006-0.059,0.029-0.074
			c0.026-0.015,0.062-0.011,0.082,0.01c12.018,11.444,23.031,23.688,32.731,36.39c10.231,13.396,19.074,27.401,26.279,41.627
			C103.427,131.483,103.43,131.494,103.43,131.504z M28.14,129.458c27.558,1.622,52.829,2.288,75.115,1.979
			c-14.139-27.871-33.911-54.02-58.77-77.726c1.188,4.942,1.79,10.248,1.79,15.771C46.274,87.284,40.004,108.021,28.14,129.458z"
			/>
	</g>
	<g id="triangle36_3772_">
		<path d="M44.411,53.458C30.211,39.384,15.28,27.424,0,17.814v0.157c15.083,9.497,29.83,21.284,43.865,35.138
			C28.647,43.401,13.572,34.521,0,26.575v0.156C13.713,34.76,28.955,43.74,44.329,53.562c0.026,0.019,0.067,0.013,0.088-0.014
			c0.009-0.013,0.015-0.027,0.015-0.042C44.432,53.488,44.423,53.472,44.411,53.458z"/>
	</g>
	<g id="triangle36_3771_">
		<path d="M44.417,53.467C32.224,36.44,16.932,22.434,0,12.737v0.152c16.671,9.563,31.751,23.31,43.839,40.004
			C29.809,39.063,15.075,27.294,0,17.812v0.161c15.245,9.599,30.144,21.536,44.317,35.581c0.023,0.025,0.064,0.026,0.091,0.004
			c0.015-0.013,0.023-0.032,0.023-0.051C44.432,53.491,44.426,53.478,44.417,53.467z"/>
	</g>
	<g id="triangle36_3770_">
		<path d="M114.33,273.2c0,0.003-0.003,0.003-0.003,0.006c-0.657,5.449-3.054,11.176-6.933,16.565
			c-1.238,1.772-2.614,3.5-4.09,5.131c-0.023,0.026-0.064,0.029-0.091,0.009c-0.029-0.023-0.035-0.064-0.015-0.091
			c4.791-6.927,8.491-14.209,10.999-21.644c0.012-0.032,0.044-0.05,0.08-0.044C114.307,273.142,114.33,273.168,114.33,273.2z
			 M103.915,294.011c1.206-1.388,2.335-2.837,3.371-4.319c3.703-5.149,6.053-10.603,6.818-15.826
			C111.707,280.77,108.283,287.542,103.915,294.011z"/>
	</g>
	<g id="triangle36_3769_">
		<path d="M136.725,223.778L136.725,223.778c0,1.543-0.373,3.145-1.08,4.632c-2.734,10.888-6.531,21.638-11.272,31.942
			c-4.745,10.301-10.454,20.194-16.976,29.413c0,0,0,0.003-0.003,0.006l0,0l0,0c-0.021,0.029-0.064,0.035-0.094,0.015
			s-0.038-0.062-0.015-0.094c14.332-20.312,24.398-43.769,29.11-67.835c0.006-0.032,0.032-0.056,0.064-0.056
			c0.033,0,0.059,0.023,0.068,0.053C136.657,222.479,136.725,223.124,136.725,223.778z M124.188,260.382
			c4.768-10.348,8.591-21.115,11.331-32.015c0.701-1.484,1.071-3.066,1.071-4.588l0,0c0-0.525-0.044-1.047-0.129-1.555
			C133.882,235.259,129.733,248.112,124.188,260.382z"/>
	</g>
	<g id="triangle36_3768_">
		<path d="M103.43,131.504c0,0.03-0.021,0.056-0.05,0.065s-0.064-0.006-0.079-0.035C89.13,103.565,69.285,77.33,44.317,53.554
			c-0.018-0.017-0.026-0.041-0.018-0.064c0.003-0.022,0.023-0.042,0.044-0.048c9.758-2.976,16.289-5.928,20.558-9.291
			c0.026-0.021,0.064-0.019,0.088,0.007c21.459,22.989,35.11,54.007,38.44,87.34C103.43,131.5,103.43,131.502,103.43,131.504z
			 M44.493,53.536c11.988,11.422,22.973,23.639,32.649,36.311c10.154,13.296,18.938,27.191,26.118,41.306
			c-3.386-33.145-16.988-63.977-38.326-86.857C60.671,47.64,54.169,50.579,44.493,53.536z"/>
	</g>
	<g id="triangle36_3767_">
		<path d="M103.868,121.455c0,0.001,0,0.001,0,0.003c0,3.351-0.147,6.733-0.438,10.052c-0.003,0.034-0.032,0.061-0.067,0.061
			s-0.064-0.026-0.067-0.06C99.968,98.208,86.332,67.218,64.893,44.25c-0.018-0.019-0.023-0.047-0.012-0.072
			c0.009-0.025,0.032-0.041,0.059-0.042c3.45-0.15,6.501-0.361,9.066-0.625c0.021-0.002,0.044,0.006,0.056,0.021
			c9.5,10.408,16.929,22.542,22.084,36.067C101.268,93.044,103.868,107.127,103.868,121.455z M103.354,130.779
			c0.252-3.084,0.378-6.216,0.378-9.322c0.003-28.72-10.841-57.079-29.744-77.81c-2.526,0.26-5.519,0.467-8.899,0.617
			C86.337,67.078,99.91,97.772,103.354,130.779z"/>
	</g>
	<g id="triangle36_3766_">
		<path d="M105.111,291.579L105.111,291.579c0,1.197-0.678,2.444-1.816,3.333c-1.763,2.245-3.629,4.498-5.531,6.687
			c-5.856,8.197-14.142,16.146-24.619,23.615c-0.029,0.021-0.07,0.012-0.091-0.015c-0.023-0.029-0.018-0.07,0.012-0.094
			c8.984-7.218,17.257-15.154,24.592-23.592c2.749-3.85,4.997-7.811,6.678-11.768c0.009-0.021,0.029-0.038,0.05-0.041
			c0.023-0.003,0.047,0.006,0.062,0.023C104.883,290.247,105.111,290.886,105.111,291.579z M98.531,300.504
			c1.599-1.869,3.166-3.776,4.671-5.689c1.118-0.875,1.775-2.081,1.775-3.236c0-0.622-0.194-1.2-0.561-1.678
			C102.894,293.462,100.919,297.024,98.531,300.504z M75.042,323.67c9.031-6.666,16.327-13.695,21.726-20.937
			C90.201,310.165,82.907,317.195,75.042,323.67z"/>
	</g>
	<g id="triangle36_3765_">
		<path d="M107.406,289.733c0,0.012-0.003,0.026-0.012,0.038c-0.865,1.241-1.804,2.464-2.79,3.641
			c-0.314,0.555-0.766,1.074-1.309,1.5c-0.026,0.021-0.067,0.018-0.091-0.009s-0.023-0.064,0-0.091
			c0.437-0.484,0.871-0.98,1.288-1.476c0.317-0.572,0.484-1.176,0.484-1.757c0-0.66-0.217-1.271-0.631-1.763
			c-0.015-0.023-0.021-0.05-0.009-0.073c0.009-0.023,0.032-0.038,0.059-0.038c0.375-0.009,0.716-0.015,1.024-0.024
			c0.989-0.021,1.64-0.035,1.925-0.015c0.023,0,0.047,0.015,0.056,0.039C107.406,289.713,107.406,289.722,107.406,289.733z
			 M104.845,292.914c0.83-1.015,1.625-2.063,2.371-3.122c-0.326-0.009-0.93,0.006-1.793,0.023
			c-0.27,0.006-0.566,0.015-0.889,0.021c0.378,0.499,0.578,1.097,0.578,1.743C105.111,292.019,105.021,292.471,104.845,292.914z"
			/>
	</g>
	<g id="triangle36_3764_">
		<path d="M136.528,221.868c0,0.003,0,0.009,0,0.012c-4.715,24.088-14.79,47.565-29.134,67.892
			c-0.012,0.018-0.035,0.029-0.059,0.026c-0.279-0.018-0.927-0.003-1.913,0.018c-0.308,0.009-0.648,0.015-1.024,0.023
			c-0.026,0-0.05-0.015-0.062-0.038c-0.012-0.021-0.009-0.05,0.006-0.07c15.113-20.335,26.194-43.807,32.053-67.877
			c0.009-0.035,0.044-0.059,0.08-0.05C136.508,221.81,136.528,221.839,136.528,221.868z M107.306,289.663
			c13.74-19.478,23.557-41.85,28.488-64.875c-2.893,11.079-6.874,22.013-11.856,32.549
			c-5.369,11.357-11.897,22.248-19.405,32.365c0.32-0.006,0.616-0.012,0.886-0.021
			C106.367,289.66,107.004,289.645,107.306,289.663z"/>
	</g>
	<g id="triangle36_3763_">
		<path d="M136.528,221.868c0,0.006,0,0.012-0.003,0.018c-2.937,12.07-7.171,23.997-12.587,35.451
			c-5.39,11.398-11.947,22.328-19.487,32.476c-0.021,0.026-0.059,0.035-0.088,0.015c-0.032-0.018-0.041-0.056-0.026-0.085
			c5.137-10.325,7.851-21.834,7.851-33.286c0-1.643-0.056-3.307-0.167-4.941c0-0.021,0.009-0.041,0.023-0.056
			c12.317-10.427,20.282-20.115,24.354-29.618c0.015-0.032,0.05-0.047,0.085-0.038
			C136.511,221.815,136.528,221.839,136.528,221.868z M104.786,289.132c14.729-19.98,25.578-42.95,31.426-66.524
			c-4.167,9.286-12.044,18.76-24.053,28.932c0.109,1.628,0.165,3.283,0.165,4.917
			C112.323,267.682,109.718,278.963,104.786,289.132z"/>
	</g>
	<g id="triangle36_3762_">
		<path d="M112.323,256.457L112.323,256.457c0,11.472-2.72,23.002-7.866,33.344c-0.009,0.018-0.023,0.029-0.038,0.035
			c-0.021,0.003-0.038,0.003-0.053-0.006c-2.514-1.367-6.646-2.233-12.076-3.119c-6.246-1-13.965-1.849-23.601-2.591
			c-0.029-0.003-0.053-0.021-0.059-0.05c-0.009-0.026,0.003-0.056,0.026-0.073c18.598-12.006,32.385-22.345,43.384-32.535
			c0.021-0.021,0.047-0.023,0.073-0.015c0.023,0.009,0.038,0.032,0.041,0.059C112.268,253.144,112.323,254.811,112.323,256.457z
			 M104.369,289.677c5.114-10.307,7.819-21.793,7.819-33.221l0,0c0-1.596-0.053-3.21-0.158-4.8
			c-10.956,10.134-24.668,20.417-43.132,32.347c9.547,0.736,17.208,1.581,23.413,2.576
			C97.712,287.457,101.832,288.325,104.369,289.677z"/>
	</g>
	<g id="triangle36_3761_">
		<path d="M73.152,325.105c-0.026-0.021-0.067-0.021-0.091,0.006c-3.538,3.521-7.502,6.915-11.783,10.087
			c-7.411,4.36-16.835,7.945-25.094,10.882C25.517,352.93,13.344,358.317,0,362.14v0.22c11.454-2.805,22.248-6.349,32.088-10.559
			c11.008-4.712,20.854-10.26,29.263-16.492c5.439-3.198,9.301-6.507,11.812-10.113c0.009-0.012,0.012-0.026,0.012-0.038
			C73.175,325.137,73.167,325.12,73.152,325.105z M1.614,361.832c12.745-3.8,24.384-9.051,34.629-15.632
			c7.863-2.796,16.8-6.185,24.043-10.274C44.889,347.083,24.692,355.999,1.614,361.832z M62.417,334.511
			c3.653-2.77,7.065-5.707,10.164-8.737C70.268,328.857,66.926,331.729,62.417,334.511z"/>
	</g>
	<g id="triangle36_3760_">
		<path d="M104.466,289.771c0,0.009-0.003,0.018-0.006,0.026c-5.287,12.455-15.82,24.366-31.302,35.407
			c-6.05,8.685-19.132,14.673-36.915,20.995c-0.035,0.012-0.071-0.006-0.085-0.035c-0.015-0.032,0-0.07,0.033-0.088
			c26.681-13.886,50.247-33.371,68.155-56.346c0.021-0.026,0.056-0.036,0.085-0.018
			C104.454,289.725,104.466,289.748,104.466,289.771z M37.105,345.748c17.302-6.196,30.023-12.12,35.947-20.628
			c0.006-0.009,0.009-0.012,0.018-0.018c15.271-10.885,25.716-22.618,31.059-34.879
			C86.443,312.791,63.294,331.967,37.105,345.748z"/>
	</g>
	<g id="triangle36_3759_">
		<path d="M36.22,346.065c-0.018,0-0.032,0.006-0.044,0.018C24.504,351.408,12.373,355.938,0,359.62v0.141
			c12.091-3.597,23.953-8.001,35.377-13.168C24.906,353.2,13.009,358.414,0,362.143v0.138
			c13.37-3.829,25.569-9.224,36.258-16.087c0.018-0.015,0.029-0.035,0.029-0.059v-0.003
			C36.287,346.097,36.258,346.065,36.22,346.065z"/>
	</g>
	<g id="triangle36_3758_">
		<path d="M104.466,289.771c0,0.015-0.006,0.029-0.015,0.041c-17.917,22.99-41.5,42.489-68.199,56.384
			c-0.032,0.015-0.07,0.006-0.091-0.026c-0.018-0.032-0.006-0.07,0.021-0.091c20.05-13.722,32.508-36.416,32.508-59.228
			c0,0,0,0,0-0.003c0-0.927-0.021-1.869-0.062-2.79c0-0.003,0-0.003,0-0.006c0-0.018,0.009-0.035,0.021-0.047
			c0.015-0.015,0.032-0.021,0.053-0.018c9.638,0.74,17.36,1.587,23.609,2.591c5.445,0.886,9.588,1.757,12.117,3.134
			c0.018,0.009,0.032,0.026,0.035,0.044C104.463,289.763,104.466,289.766,104.466,289.771z M37.141,345.578
			c26.268-13.84,49.469-33.11,67.155-55.786c-2.521-1.344-6.628-2.204-12.006-3.081c-6.229-0.998-13.924-1.846-23.524-2.585
			c0.038,0.904,0.056,1.819,0.056,2.723v0.003c0.003,11.46-3.083,23.046-8.919,33.509
			C54.381,330.26,46.526,338.959,37.141,345.578z"/>
	</g>
	<g id="triangle36_3757_">
		<path d="M68.763,284.05c-0.003-0.032-0.026-0.059-0.059-0.062c-0.029-0.006-0.062,0.012-0.073,0.044
			c-12.32,34.11-37.552,61.322-68.631,74.63v0.124c13.69-5.892,26.541-14.632,37.616-25.669
			c13.648-13.604,24.369-30.442,31.026-48.718c0.029,0.813,0.047,1.637,0.047,2.45c0,22.812-12.458,45.508-32.496,59.228
			C24.516,351.405,12.378,355.935,0,359.62v0.141c12.399-3.688,24.557-8.227,36.258-13.57c9.773-6.689,17.95-15.62,23.645-25.83
			c5.835-10.462,8.919-22.052,8.919-33.512C68.821,285.919,68.804,284.98,68.763,284.05z"/>
	</g>
	<g id="triangle36_3756_">
		<path d="M44.429,53.483c-3.263-9.089-8.385-17.533-15.224-25.094C22.448,20.915,14.379,14.708,5.229,9.936
			C5.217,9.93,5.202,9.927,5.19,9.929C3.585,10.121,1.854,10.287,0,10.434v0.135c1.852-0.147,3.58-0.313,5.184-0.505
			c18.238,9.514,32.406,25.168,38.951,43.007C31.989,36.224,16.8,22.356,0,12.732v0.16c16.888,9.687,32.142,23.665,44.309,40.653
			c0.021,0.027,0.056,0.036,0.088,0.021c0.021-0.013,0.035-0.035,0.035-0.06C44.432,53.499,44.432,53.49,44.429,53.483z"/>
	</g>
	<g id="triangle36_3755_">
		<path d="M65.01,44.204c0,0.021-0.012,0.04-0.026,0.053c-4.281,3.374-10.826,6.333-20.599,9.313
			c-0.035,0.01-0.073-0.009-0.085-0.042c-6.47-18.034-20.734-33.88-39.133-43.474c-0.032-0.017-0.044-0.056-0.029-0.087
			c0.012-0.034,0.05-0.049,0.085-0.035c21.388,8.324,41.495,19.836,59.761,34.218C64.999,44.164,65.01,44.184,65.01,44.204z
			 M44.405,53.422c9.673-2.953,16.169-5.885,20.429-9.218C46.908,30.102,27.212,18.764,6.276,10.49
			c8.72,4.694,16.43,10.711,22.929,17.899C36.029,35.933,41.143,44.356,44.405,53.422z"/>
	</g>
	<g id="triangle36_3754_">
		<path d="M74.082,43.578c0,0.005-0.003,0.011-0.003,0.016c-0.009,0.027-0.032,0.048-0.059,0.05
			c-2.567,0.265-5.622,0.476-9.075,0.626c-0.018,0.001-0.032-0.004-0.044-0.014C46.644,29.883,26.549,18.377,5.172,10.058
			c-0.035-0.013-0.053-0.051-0.038-0.086c0.012-0.034,0.05-0.052,0.085-0.04c26.355,8.989,49.513,20.29,68.833,33.59
			C74.07,43.535,74.082,43.556,74.082,43.578z M64.963,44.136c3.362-0.147,6.34-0.352,8.86-0.606
			C55.243,30.761,33.115,19.838,8.013,11.041C28.351,19.263,47.5,30.39,64.963,44.136z"/>
	</g>
	<g id="triangle36_3753_">
		<path d="M74.082,43.578c0,0.016-0.009,0.032-0.018,0.044c-0.023,0.026-0.062,0.03-0.091,0.011
			C54.668,30.34,31.52,19.044,5.175,10.059c-0.032-0.01-0.05-0.04-0.044-0.073C5.134,9.954,5.164,9.93,5.196,9.928
			c7.218-0.204,13.479-0.489,16.985-1.912c0.018-0.006,0.035-0.006,0.05,0c20.426,8.328,38.35,20.609,51.831,35.516
			C74.073,43.545,74.082,43.562,74.082,43.578z M5.572,10.052c25.992,8.896,48.868,20.044,68.003,33.143
			C60.155,28.501,42.407,16.392,22.207,8.151C18.736,9.549,12.628,9.847,5.572,10.052z"/>
	</g>
	<g id="triangle36_3752_">
		<path d="M22.228,8.015C15.048,5.643,7.62,3.681,0,2.079v0.118c7.546,1.587,14.896,3.544,22.007,5.887
			c-3.532,1.362-9.699,1.643-16.794,1.844C3.539,8.938,1.79,8.021,0,7.142V7.27c1.775,0.874,3.5,1.801,5.164,2.784
			c0.009,0.006,0.023,0.009,0.035,0.009c7.232-0.205,13.505-0.491,17.032-1.922c0.026-0.01,0.044-0.035,0.044-0.062V8.077
			C22.271,8.048,22.254,8.023,22.228,8.015z"/>
	</g>
	<g id="triangle36_3751_">
		<path d="M28.086,129.484c-0.015-0.022-0.038-0.034-0.064-0.032c-9.081,0.726-18.446,1.317-28.022,1.786v0.135
			c9.532-0.467,18.859-1.055,27.902-1.776c-7.206,11.788-16.122,24.027-27.253,37.409c-0.214-0.181-0.434-0.365-0.648-0.546
			v0.175c0.203,0.171,0.411,0.346,0.616,0.517c0.012,0.011,0.032,0.017,0.05,0.016c0.015-0.001,0.032-0.01,0.044-0.025
			c11.193-13.45,20.147-25.746,27.376-37.59c0.006-0.011,0.009-0.022,0.009-0.034C28.095,129.506,28.092,129.494,28.086,129.484z
			"/>
	</g>
	<g id="triangle36_3750_">
		<path d="M68.707,253.689c-0.003-0.035-0.032-0.062-0.067-0.062c-0.035,0.003-0.064,0.029-0.064,0.062
			c-2.236,26.984-10.533,51.024-23.991,69.529C33.397,338.578,17.815,350.871,0,358.602v0.191
			c13.69-5.892,26.541-14.635,37.616-25.675c13.728-13.684,24.496-30.642,31.146-49.052c0.61-4.662,0.921-9.55,0.921-14.529
			c0,0,0,0,0-0.003C69.684,264.41,69.355,259.076,68.707,253.689z M69.549,269.536c0,4.973-0.308,9.855-0.918,14.497
			c-10.615,29.389-30.815,53.665-56.085,68.332c12.619-7.485,23.648-17.398,32.147-29.067
			c13.364-18.372,21.641-42.196,23.958-68.933c0.596,5.158,0.898,10.26,0.898,15.168
			C69.549,269.536,69.549,269.536,69.549,269.536z"/>
	</g>
	<g id="triangle36_3749_">
		<path d="M69.044,42.18C49.487,21.079,25.1,6.02,0-0.572v0.16C15.477,3.823,29.891,11.549,41.894,22.09
			C58.717,36.898,71.896,57.797,80,82.528c6.54,20.019,9.858,42.026,9.858,65.411c0,0.004,0,0.004,0,0.009
			c0,34.697-7.358,71.257-21.28,105.725c-0.015,0.033,0.003,0.071,0.035,0.085c0.035,0.015,0.073,0,0.088-0.032
			c9.083-18.91,16.148-38.669,21.001-58.732c4.905-20.288,7.393-40.259,7.393-59.36v-0.01
			C97.096,98.076,87.396,65.764,69.044,42.18z M96.961,135.633c0,37.384-9.75,78.542-27.477,116.132
			c13.423-33.908,20.508-69.757,20.508-103.818v-0.009c0-23.399-3.321-45.42-9.864-65.453
			C72.017,57.733,58.826,36.813,41.982,21.99C31.754,13.006,19.778,6.059,6.883,1.574c22.612,7.378,44.323,21.558,62.059,40.692
			c18.331,23.558,28.022,55.837,28.019,93.356V135.633z"/>
	</g>
	<g id="triangle36_3748_">
		<path d="M93.613,230.943c0,0.012-0.003,0.023-0.009,0.032c-4.518,7.655-9.717,15.623-15.45,23.686
			c-0.015,0.021-0.038,0.03-0.062,0.026c-2.796-0.299-5.8-0.592-9.459-0.924c-0.026-0.003-0.05-0.021-0.056-0.047
			c-0.009-0.023-0.003-0.053,0.018-0.071c9.667-8.262,17.809-15.699,24.895-22.741c0.009-0.018,0.032-0.032,0.056-0.032
			c0.038,0,0.067,0.029,0.067,0.067V230.943z M78.069,254.549c5.61-7.886,10.706-15.688,15.151-23.19
			c-6.971,6.91-14.963,14.203-24.414,22.286C72.375,253.968,75.323,254.256,78.069,254.549z"/>
	</g>
	<g id="triangle36_3740_">
		<path d="M78.166,254.623c0,0.003,0,0.009,0,0.015c-2.4,10.298-5.565,20.203-9.409,29.442c-0.012,0.032-0.047,0.05-0.079,0.038
			c-0.032-0.006-0.053-0.041-0.05-0.073c0.613-4.653,0.921-9.536,0.921-14.508c0-5.12-0.326-10.448-0.974-15.832
			c0-0.021,0.003-0.042,0.018-0.056s0.035-0.021,0.056-0.018c3.656,0.329,6.663,0.622,9.459,0.924
			c0.018,0,0.038,0.012,0.047,0.026C78.163,254.593,78.166,254.608,78.166,254.623z M68.827,283.563
			c3.744-9.078,6.833-18.792,9.189-28.882c-2.752-0.296-5.712-0.583-9.301-0.909c0.643,5.36,0.968,10.665,0.968,15.764
			C69.684,274.336,69.396,279.054,68.827,283.563z"/>
	</g>
	<g id="triangle36_3739_">
		<path d="M5.22,9.933C3.491,9.283,1.746,8.656,0,8.045v0.142c1.643,0.575,3.283,1.164,4.915,1.774
			C3.389,10.14,1.749,10.295,0,10.434v0.135c1.86-0.148,3.594-0.314,5.205-0.506c0.033-0.004,0.056-0.028,0.059-0.06
			c0-0.002,0-0.005,0-0.007C5.264,9.968,5.246,9.943,5.22,9.933z"/>
	</g>
	<g id="triangle36_3738_">
		<path d="M5.231,9.938C3.544,8.942,1.798,8.002,0,7.118V7.29c1.532,0.753,3.037,1.532,4.483,2.367
			C2.993,9.103,1.496,8.565,0,8.042v0.146c1.728,0.605,3.459,1.227,5.172,1.872c0.032,0.012,0.071-0.002,0.085-0.034
			c0.006-0.009,0.006-0.02,0.006-0.029C5.264,9.972,5.252,9.95,5.231,9.938z"/>
	</g>
	<g id="triangle36_3737_">
		<path d="M121.984,189.155c0,0.003,0,0.003,0,0.003c0,21.69-3.306,42.677-9.832,62.373c-0.012,0.032-0.038,0.05-0.07,0.047
			c-0.029,0-0.056-0.023-0.062-0.053c-2.048-11.551-7.52-23.645-16.263-35.941c-0.018-0.026-0.018-0.059,0.003-0.082
			c11.263-13.845,19.672-26.646,25.707-39.142c0.015-0.026,0.044-0.041,0.076-0.035c0.029,0.006,0.053,0.032,0.053,0.062
			C121.855,180.625,121.984,184.924,121.984,189.155z M112.109,251.237c6.463-19.61,9.741-40.494,9.741-62.079
			c0-4.146-0.123-8.353-0.37-12.507c-6.029,12.419-14.4,25.146-25.584,38.895C104.569,227.753,110.02,239.759,112.109,251.237z"
			/>
	</g>
	<g id="triangle36_3736_">
		<path d="M112.156,251.51c0,0.029-0.018,0.056-0.044,0.064c-0.032,0.012-0.064-0.003-0.082-0.032
			c-3.796-6.786-10.031-13.699-18.525-20.546c-0.021-0.018-0.029-0.038-0.023-0.064c0.915-5.002,1.678-10.184,2.265-15.395
			c0.003-0.026,0.021-0.05,0.05-0.059c0.026-0.006,0.053,0.006,0.07,0.026c8.755,12.314,14.235,24.425,16.289,35.994
			C112.156,251.504,112.156,251.507,112.156,251.51z M93.619,230.917c8.35,6.733,14.514,13.531,18.334,20.215
			c-2.095-11.387-7.508-23.295-16.093-35.404C95.277,220.868,94.523,225.976,93.619,230.917z"/>
	</g>
	<g id="triangle36_3733_">
		<path d="M121.597,176.389c0,0.012-0.003,0.021-0.006,0.029c-6.041,12.504-14.456,25.317-25.728,39.168
			c-0.021,0.026-0.053,0.032-0.082,0.018c-0.03-0.015-0.044-0.047-0.036-0.076c5.566-20.669,8.385-41.753,8.385-62.665
			c0-0.004,0-0.006,0-0.01c-0.003-43.738-12.499-83.011-35.189-110.584c-0.023-0.029-0.021-0.07,0.009-0.094
			c0.026-0.024,0.067-0.022,0.094,0.005c7.91,8.52,15.154,18.069,21.526,28.384c6.305,10.203,11.78,21.195,16.28,32.668
			c4.504,11.488,8.042,23.497,10.513,35.695C119.872,151.284,121.295,163.888,121.597,176.389L121.597,176.389z M95.958,215.258
			c11.161-13.746,19.505-26.467,25.505-38.883c-1.212-49.842-19.792-98.003-51.06-132.513
			c21.852,27.501,33.861,66.102,33.864,108.992c0,0.003,0,0.007,0,0.01C104.267,173.685,101.474,194.673,95.958,215.258z"/>
	</g>
	<g id="triangle36_3732_">
		<path d="M104.267,152.852c0,0.002,0-0.001,0,0.001c0,20.93-2.823,42.028-8.391,62.709c0,0.006-0.003,0.012-0.006,0.015
			c-7.526,12.25-16.416,24.733-27.177,38.162c-0.021,0.026-0.059,0.032-0.088,0.015s-0.041-0.056-0.023-0.088
			c18.302-38.103,28.383-80.022,28.38-118.033c0-37.524-9.691-69.811-28.019-93.366c-0.023-0.028-0.018-0.07,0.009-0.094
			c0.029-0.023,0.07-0.018,0.097,0.01C91.756,69.783,104.267,109.089,104.267,152.852z M95.749,215.516
			c5.563-20.664,8.382-41.748,8.382-62.663c0-41.896-11.469-79.698-32.382-107.045c16.597,23.219,25.346,54.158,25.346,89.825
			c0,19.102-2.488,39.075-7.393,59.36c-4.806,19.872-11.786,39.45-20.746,58.204C79.545,239.95,88.314,227.619,95.749,215.516z"
			/>
	</g>
	<g id="triangle36_3731_">
		<path d="M95.878,215.545c0,0,0,0.003,0,0.006c-0.587,5.217-1.35,10.398-2.265,15.403c-0.003,0.015-0.009,0.026-0.021,0.035
			c-7.088,7.047-15.236,14.491-24.909,22.759c-0.026,0.021-0.064,0.021-0.088-0.003c-0.026-0.026-0.029-0.065-0.006-0.091
			c10.753-13.419,19.637-25.895,27.159-38.135c0.009-0.026,0.033-0.044,0.062-0.044c0.038,0,0.067,0.029,0.067,0.064
			C95.878,215.542,95.878,215.542,95.878,215.545z M93.484,230.911c0.897-4.903,1.646-9.973,2.227-15.075
			c-7.388,11.997-16.086,24.223-26.573,37.346C78.565,245.108,86.534,237.817,93.484,230.911z"/>
	</g>
	<g id="triangle36_3730_">
		<path d="M28.057,129.458C19.097,125.116,9.603,120.506,0,115.72v0.15c9.503,4.735,18.9,9.299,27.776,13.6
			c-9.001,0.718-18.288,1.301-27.776,1.767v0.134c9.579-0.469,18.95-1.061,28.034-1.787c0.029-0.001,0.056-0.024,0.062-0.054
			c0-0.004,0-0.009,0-0.012C28.095,129.494,28.081,129.469,28.057,129.458z"/>
	</g>
	<g id="triangle36_3729_">
		<path d="M14.403,345.208c-4.926-0.217-9.7-0.449-14.403-0.689v0.135c4.545,0.231,9.151,0.455,13.901,0.666
			c-4.462,1.024-9.066,2.024-13.901,3.028v0.138c5.02-1.042,9.791-2.08,14.415-3.145c0.029-0.006,0.05-0.035,0.05-0.067v-0.006
			C14.461,345.234,14.435,345.208,14.403,345.208z"/>
	</g>
	<g id="triangle36_3728_">
		<path d="M14.461,345.249c-0.015-0.029-0.047-0.047-0.079-0.041c-4.612,1.065-9.371,2.101-14.382,3.14v0.138
			c4.882-1.012,9.529-2.024,14.033-3.057c-4.815,3.057-9.498,5.844-14.033,8.356v0.152c4.662-2.579,9.479-5.448,14.435-8.605
			c0.021-0.012,0.029-0.035,0.029-0.059C14.464,345.267,14.464,345.258,14.461,345.249z"/>
	</g>
	<g id="triangle36_3727_">
		<path d="M14.453,345.234c-0.021-0.029-0.062-0.035-0.091-0.018c-4.929,3.143-9.723,5.997-14.362,8.567v0.152
			c4.331-2.397,8.793-5.038,13.376-7.933c-4.483,3.541-8.949,6.666-13.376,9.412v0.158c4.779-2.96,9.6-6.364,14.441-10.245
			c0.015-0.015,0.023-0.035,0.023-0.056C14.464,345.261,14.461,345.246,14.453,345.234z"/>
	</g>
	<g id="triangle36_3726_">
		<path d="M137.863,145.065c0,2.423-0.391,4.856-1.156,7.231c-0.009,0.032-0.041,0.051-0.073,0.046
			c-0.032-0.005-0.059-0.033-0.059-0.067c-0.088-11.077-1.91-22.126-5.419-32.838c-1.614-4.538-3.433-9.065-5.401-13.459
			c-0.015-0.034,0-0.073,0.032-0.087c0.035-0.017,0.073-0.002,0.091,0.031c2.086,4.355,3.905,8.889,5.407,13.471
			c2.415,6.79,4.442,13.78,6.023,20.778C137.675,141.754,137.863,143.4,137.863,145.065z M136.707,151.85
			c0.678-2.232,1.021-4.514,1.021-6.785c0-1.654-0.185-3.291-0.551-4.863c-1.276-5.658-2.849-11.309-4.677-16.853
			C135.179,132.693,136.59,142.259,136.707,151.85z"/>
	</g>
	<g id="triangle36_3725_">
		<path d="M136.71,152.276c0,0.035-0.026,0.063-0.059,0.067c-0.035,0.003-0.067-0.021-0.073-0.055
			c-4.542-24.465-14.133-48.753-27.738-70.239c-0.021-0.028-0.015-0.067,0.012-0.088c0.027-0.021,0.065-0.021,0.088,0.003
			c8.391,7.795,14.092,15.859,16.94,23.966C132.837,120.451,136.584,136.479,136.71,152.276L136.71,152.276z M109.231,82.418
			c6.657,10.573,12.36,21.807,16.949,33.399c4.606,11.626,8.098,23.629,10.386,35.688c-0.238-15.527-3.973-31.25-10.812-45.524
			C122.956,98.012,117.396,90.088,109.231,82.418z"/>
	</g>
	<g id="triangle36_3724_">
		<path d="M140.809,161.483c0,0.034-0.026,0.062-0.059,0.066c-0.038,0.005-0.07-0.02-0.076-0.056
			c-0.458-2.991-1.872-6.165-4.084-9.178c-0.012-0.018-0.018-0.04-0.012-0.06c0.763-2.362,1.15-4.782,1.15-7.19
			c0-1.558-0.164-3.103-0.487-4.591c-0.003,0-0.003,0-0.003,0l-0.062-0.273c-0.006-0.038,0.018-0.071,0.053-0.08
			s0.07,0.015,0.079,0.051l0,0l0,0c0.023,0.09,0.041,0.18,0.062,0.272v0.001c1.555,6.933,2.711,14.009,3.438,21.032
			C140.809,161.479,140.809,161.482,140.809,161.483z M136.719,152.265c1.863,2.543,3.16,5.202,3.8,7.771
			c-0.643-5.749-1.57-11.524-2.77-17.221c0.077,0.744,0.115,1.496,0.115,2.25C137.863,147.478,137.479,149.899,136.719,152.265z"
			/>
	</g>
	<g id="triangle36_3722_">
		<path d="M141.707,179.223c0,14.347-1.743,28.7-5.181,42.663c-0.009,0.035-0.044,0.056-0.08,0.047
			c-0.035-0.006-0.059-0.041-0.05-0.076c2.265-11.378,3.415-23.155,3.415-35.005c0-11.527-1.088-23.158-3.233-34.563
			c-0.009-0.031,0.009-0.061,0.038-0.073s0.062-0.004,0.082,0.021c2.224,3.031,3.647,6.224,4.107,9.237
			C141.404,167.328,141.707,173.299,141.707,179.223z M137.085,218.946c2.978-13.032,4.486-26.382,4.486-39.723
			c0-5.92-0.302-11.887-0.898-17.732c-0.446-2.909-1.795-5.993-3.911-8.933c2.113,11.32,3.184,22.857,3.184,34.294
			C139.946,197.692,138.984,208.475,137.085,218.946z"/>
	</g>
	<g id="triangle36_3721_">
		<path d="M139.946,186.852c0,11.859-1.15,23.645-3.418,35.031c-0.009,0.035-0.041,0.056-0.077,0.053
			c-0.032-0.006-0.059-0.035-0.059-0.067v-0.003c0.083-1.165,0.124-2.356,0.124-3.542c0-13.593-5.202-28.081-15.04-41.894
			c-0.021-0.026-0.018-0.064,0.006-0.085c8.071-8.425,13.15-16.528,15.095-24.085c0.009-0.031,0.035-0.052,0.067-0.051
			s0.059,0.024,0.064,0.056C138.858,163.678,139.946,175.315,139.946,186.852z M136.587,220.874
			c2.142-11.073,3.224-22.512,3.224-34.022c0-11.431-1.071-22.958-3.18-34.269c-2.001,7.486-7.05,15.495-15.013,23.812
			c4.786,6.728,8.509,13.705,11.067,20.731c2.632,7.232,3.967,14.368,3.967,21.198
			C136.651,219.175,136.631,220.028,136.587,220.874z"/>
	</g>
	<g id="triangle36_3720_">
		<path d="M136.71,152.276c0,0.005,0,0.011-0.003,0.016c-1.951,7.581-7.042,15.704-15.127,24.144
			c-0.021,0.023-0.053,0.026-0.079,0.015s-0.041-0.038-0.038-0.07c1.376-9.055,2.071-18.2,2.071-27.181
			c-0.003-24.213-5.084-47.436-14.699-67.158c-0.015-0.031-0.003-0.07,0.029-0.088c0.03-0.017,0.071-0.008,0.088,0.023
			c6.777,10.702,12.575,22.087,17.228,33.841c4.703,11.871,8.244,24.133,10.53,36.447
			C136.71,152.269,136.71,152.272,136.71,152.276z M121.629,176.189c7.98-8.362,13.006-16.407,14.946-23.915
			c-4.471-24.079-13.833-47.983-27.101-69.215c9.289,19.506,14.191,42.346,14.191,66.14
			C123.666,158.118,122.982,167.199,121.629,176.189z"/>
	</g>
	<g id="triangle36_3719_">
		<path d="M130.775,238.589c0,0.009-0.003,0.015-0.006,0.023c-4.266,11.923-9.8,23.571-16.451,34.621
			c-0.018,0.029-0.05,0.041-0.08,0.029c-0.032-0.012-0.05-0.042-0.044-0.074c0.375-2.071,0.566-4.225,0.566-6.402
			c0-4.993-0.974-10.069-2.896-15.089c-0.012-0.033,0.003-0.068,0.035-0.083c8.641-4.321,14.775-8.596,18.757-13.07
			c0.021-0.024,0.056-0.03,0.085-0.015C130.763,238.545,130.775,238.565,130.775,238.589z M114.392,272.854
			c6.501-10.85,11.929-22.274,16.137-33.966c-3.99,4.386-10.049,8.582-18.513,12.818c1.913,5.014,2.881,10.09,2.881,15.08
			C114.896,268.847,114.726,270.886,114.392,272.854z"/>
	</g>
	<g id="triangle36_3718_">
		<path d="M139.192,182.817c0,19.015-2.834,37.786-8.42,55.792c-0.003,0.009-0.009,0.018-0.015,0.023
			c-3.993,4.489-10.143,8.772-18.797,13.103c-0.026,0.012-0.059,0.006-0.08-0.015c-0.021-0.023-0.023-0.056-0.009-0.083
			c17.102-28.406,26.139-58.746,26.139-87.744c0-0.304,0-0.604-0.003-0.909l0,0c0-0.036,0.029-0.065,0.064-0.067
			c0.035-0.002,0.067,0.024,0.07,0.06C138.837,169.523,139.192,176.198,139.192,182.817z M130.648,238.557
			c5.578-17.991,8.409-36.745,8.409-55.739c0-6.167-0.308-12.382-0.913-18.496c-0.088,28.826-9.086,58.958-26.039,87.188
			C120.632,247.229,126.696,242.99,130.648,238.557z"/>
	</g>
	<g id="triangle36_3717_">
		<path d="M130.775,238.589c0,0.006,0,0.009-0.003,0.015c-2.078,8.837-5.088,17.627-8.952,26.129
			c-3.826,8.423-8.508,16.604-13.913,24.311c0,0,0,0-0.003,0c-0.167,0.243-0.337,0.487-0.511,0.728
			c-0.021,0.029-0.064,0.035-0.094,0.015s-0.038-0.062-0.015-0.094c0.17-0.24,0.34-0.481,0.51-0.725
			c3.559-5.149,5.774-10.603,6.399-15.776c0-0.009,0.003-0.018,0.009-0.026c6.646-11.04,12.176-22.682,16.439-34.6
			c0.012-0.033,0.05-0.05,0.085-0.042C130.754,238.533,130.775,238.56,130.775,238.589z M109.885,285.91
			c9.641-14.453,16.519-29.961,20.476-46.166c-4.207,11.524-9.6,22.782-16.034,33.476
			C113.822,277.373,112.303,281.703,109.885,285.91z"/>
	</g>
	<g id="triangle36_3716_">
		<path d="M140.234,189.478c0,13.173-1.543,26.271-4.583,38.918c-1.212,3.436-2.854,6.875-4.888,10.228
			c-0.015,0.029-0.053,0.041-0.083,0.026c-0.032-0.015-0.047-0.047-0.038-0.082c5.583-17.991,8.415-36.751,8.415-55.751
			c0-0.003,0-0.003,0-0.006c0-6.61-0.352-13.278-1.05-19.819c0-0.038,0.023-0.069,0.059-0.073
			c0.035-0.005,0.07,0.021,0.076,0.056C139.53,171.703,140.234,180.62,140.234,189.478z M130.936,238.078
			c1.896-3.195,3.438-6.463,4.586-9.717c3.037-12.636,4.577-25.719,4.577-38.883c0-7.972-0.569-15.991-1.696-23.875
			c0.522,5.698,0.79,11.476,0.79,17.208c0,0.003,0,0.003,0,0.006C139.192,201.645,136.414,220.234,130.936,238.078z"/>
	</g>
	<g id="triangle36_3715_">
		<path d="M135.651,228.381c0,0.006,0,0.012,0,0.018c-2.62,10.418-6.205,20.708-10.656,30.589
			c-4.451,9.876-9.796,19.402-15.887,28.318l0,0c-0.56,0.822-1.135,1.652-1.713,2.465c-0.021,0.029-0.064,0.035-0.094,0.015
			s-0.038-0.062-0.015-0.094l0,0l0,0l0,0c0.575-0.813,1.15-1.64,1.71-2.461c0.003-0.003,0.003-0.003,0.003-0.003
			c10.345-15.189,17.624-31.558,21.641-48.653c0.003-0.009,0.006-0.015,0.009-0.021c2.027-3.345,3.665-6.772,4.871-10.184
			c0.003-0.035,0.032-0.059,0.064-0.059c0.038,0,0.067,0.029,0.067,0.067V228.381z M116.733,274.902
			c8.159-14.215,14.35-29.384,18.463-45.265c-1.153,3.013-2.641,6.029-4.427,8.978
			C127.82,251.164,123.114,263.316,116.733,274.902z"/>
	</g>
	<g id="triangle36_3714_">
		<path d="M28.086,129.486C18.821,112.416,9.365,96.48,0,81.119v0.257c9.292,15.248,18.674,31.063,27.87,47.991
			C18.965,125.052,9.535,120.473,0,115.72v0.15c9.582,4.775,19.059,9.375,27.999,13.709c0.026,0.012,0.059,0.007,0.079-0.015
			c0.012-0.013,0.018-0.029,0.018-0.045C28.095,129.508,28.092,129.497,28.086,129.486z"/>
	</g>
	<g id="triangle36_3713_">
		<path d="M44.429,53.49c-0.006-0.031-0.035-0.053-0.067-0.051C30.578,54.184,15.711,54.328,0,53.883v0.135
			c15.691,0.444,30.542,0.301,44.312-0.442c1.214,4.98,1.831,10.331,1.831,15.907c0,0,0,0,0,0
			c-0.003,17.774-6.264,38.483-18.114,59.896C18.78,112.35,9.345,96.449,0,81.119v0.258
			c9.327,15.303,18.742,31.176,27.969,48.174c0.012,0.022,0.032,0.035,0.059,0.036c0.023,0,0.047-0.014,0.059-0.035
			c11.897-21.471,18.188-42.242,18.188-60.068c0,0,0,0,0,0C46.274,63.877,45.655,58.495,44.429,53.49z"/>
	</g>
	<g id="triangle36_3712_">
		<path d="M44.399,53.449C28.999,43.609,13.731,34.615,0,26.575v0.156C13.661,34.729,28.838,43.67,44.153,53.45
			C30.428,54.185,15.632,54.325,0,53.883v0.134c15.714,0.445,30.583,0.301,44.367-0.444c0.029-0.001,0.056-0.021,0.062-0.051
			c0.003-0.005,0.003-0.011,0.003-0.017C44.432,53.483,44.42,53.461,44.399,53.449z"/>
	</g>
	<g id="triangle36_3711_">
		<path d="M18.375,322.652c-0.009,0-0.018,0-0.023,0.006C12.589,322.96,6.414,323.233,0,323.471v0.135
			c6.323-0.234,12.414-0.504,18.105-0.801C11.959,326.458,5.953,329.911,0,333.276v0.152c6.053-3.418,12.155-6.93,18.411-10.647
			c0.021-0.012,0.032-0.035,0.032-0.059v-0.003C18.443,322.682,18.414,322.652,18.375,322.652z"/>
	</g>
	<g id="triangle36_3710_">
		<path d="M18.443,322.72c-0.003-0.023-0.015-0.047-0.035-0.056c-0.023-0.012-0.047-0.012-0.068,0
			C12.111,326.369,6.029,329.87,0,333.276v0.152c6.021-3.4,12.094-6.895,18.313-10.591c0.074,1.185,0.112,2.371,0.112,3.523
			v0.003c0,7.177-1.367,13.517-4.066,18.842c-4.912-0.217-9.67-0.446-14.359-0.687v0.135c4.7,0.241,9.471,0.469,14.394,0.687
			c0.029,0.003,0.053-0.012,0.064-0.035c2.72-5.354,4.102-11.727,4.102-18.942c0-0.003,0-0.003,0-0.003
			C18.56,325.169,18.519,323.943,18.443,322.72z"/>
	</g>
	<g id="triangle36_3709_">
		<path d="M50.98,289.214c-0.023,0-0.041,0.009-0.053,0.026C32.948,302.355,15.168,313.542,0,322.822v0.155
			c15.054-9.204,32.684-20.294,50.531-33.286c-9.808,11.193-20.631,22.278-32.185,32.966c-5.76,0.302-11.933,0.575-18.346,0.813
			v0.135c6.425-0.237,12.607-0.513,18.378-0.815c0.018,0,0.032-0.009,0.041-0.018c11.718-10.838,22.691-22.09,32.611-33.444
			c0.012-0.012,0.018-0.029,0.018-0.044c0,0,0,0,0-0.003C51.048,289.243,51.019,289.214,50.98,289.214z"/>
	</g>
	<g id="triangle36_3708_">
		<path d="M62.449,317.122c0,0.021-0.009,0.044-0.027,0.056c-14.488,9.996-30.187,19.206-47.993,28.157
			c-0.026,0.015-0.059,0.009-0.079-0.012s-0.023-0.053-0.012-0.08c2.711-5.333,4.087-11.686,4.087-18.88
			c0-1.191-0.041-2.415-0.118-3.638c0,0,0,0,0-0.003c0-0.035,0.026-0.065,0.062-0.068c17.586-1.661,31.974-3.491,43.982-5.595
			c0.009-0.006,0.021-0.009,0.029-0.009c0.038,0,0.068,0.029,0.068,0.067V317.122z M14.549,345.123
			c17.625-8.866,33.18-17.991,47.542-27.881c-11.938,2.081-26.22,3.894-43.645,5.542c0.076,1.203,0.114,2.406,0.114,3.579
			C18.56,333.496,17.21,339.807,14.549,345.123z"/>
	</g>
	<g id="triangle36_3707_">
		<path d="M62.449,317.122c0,0.032-0.024,0.062-0.053,0.064c-12.017,2.106-26.414,3.94-44.015,5.604
			c-0.029,0.003-0.056-0.015-0.068-0.041c-0.012-0.023-0.006-0.056,0.018-0.077c11.712-10.835,22.68-22.083,32.596-33.432
			c0.015-0.015,0.035-0.023,0.056-0.023c0.021,0,0.039,0.012,0.053,0.026C58.564,299.441,62.405,308.821,62.449,317.122
			L62.449,317.122z M18.566,322.637c17.48-1.655,31.792-3.477,43.748-5.571c-0.062-8.242-3.875-17.551-11.34-27.676
			C41.11,300.677,30.208,311.861,18.566,322.637z"/>
	</g>
	<g id="triangle36_3706_">
		<path d="M69.115,285.077c0,0.006,0,0.012-0.003,0.021c-0.009,0.021-0.026,0.038-0.047,0.044
			c-5.768,1.458-11.85,2.875-18.07,4.207c-0.027,0.006-0.053-0.003-0.068-0.023c-0.018-0.023-0.021-0.05-0.006-0.073
			c2.614-4.732,5.217-9.823,7.743-15.133c0.009-0.021,0.026-0.035,0.047-0.038c0.021-0.006,0.044,0,0.059,0.018
			c4.104,3.834,7.484,7.411,10.33,10.935C69.109,285.045,69.115,285.06,69.115,285.077z M51.109,289.188
			c6.135-1.317,12.129-2.714,17.821-4.151c-2.814-3.474-6.146-7.003-10.187-10.776C56.255,279.494,53.688,284.514,51.109,289.188
			z"/>
	</g>
	<g id="triangle36_3705_">
		<path d="M74.49,288.298c0,0.006,0,0.012-0.003,0.018c-0.006,0.029-0.032,0.05-0.062,0.05
			c-7.197,0.408-15.083,0.739-23.445,0.985c-0.032,0-0.062-0.026-0.067-0.059c-0.003-0.032,0.021-0.067,0.053-0.073
			c6.22-1.335,12.299-2.752,18.067-4.21c0.015-0.003,0.032,0,0.047,0.006c1.802,1.015,3.609,2.101,5.378,3.227
			C74.478,288.254,74.49,288.278,74.49,288.298z M51.714,289.193c8.006-0.241,15.57-0.561,22.497-0.951
			c-1.705-1.08-3.444-2.121-5.172-3.095C63.5,286.547,57.675,287.908,51.714,289.193z"/>
	</g>
	<g id="triangle36_3704_">
		<path d="M77.89,228.801v0.003l0,0c-0.317,20.332-3.268,39.271-8.778,56.293c-0.009,0.023-0.026,0.038-0.05,0.044
			c-0.026,0.003-0.05-0.006-0.067-0.023c-2.843-3.521-6.217-7.091-10.319-10.923c-0.021-0.021-0.026-0.053-0.012-0.079
			c7.661-14.646,14.086-29.894,19.094-45.323c0.003-0.033,0.032-0.059,0.064-0.059C77.861,228.733,77.89,228.763,77.89,228.801z
			 M69.021,284.936c5.439-16.853,8.376-35.583,8.729-55.686c-4.985,15.28-11.357,30.378-18.941,44.883
			C62.857,277.918,66.202,281.454,69.021,284.936z"/>
	</g>
	<g id="triangle36_3703_">
		<path d="M111.998,251.674c0,0.018-0.009,0.035-0.021,0.047c-11.131,11.199-25.162,22.127-42.895,33.412
			c-0.021,0.015-0.053,0.012-0.076-0.003c-0.023-0.018-0.032-0.047-0.023-0.073c5.504-17.011,8.456-35.935,8.772-56.252
			c0.003-0.024,0.015-0.044,0.035-0.059c0.018-0.012,0.044-0.012,0.064,0c17.205,8.811,27.412,15.656,34.125,22.885
			C111.992,251.642,111.998,251.659,111.998,251.674z M69.168,284.918c17.627-11.228,31.583-22.104,42.668-33.244
			c-6.689-7.186-16.853-14.001-33.946-22.762C77.564,249.133,74.631,267.972,69.168,284.918z"/>
	</g>
	<g id="triangle36_3696_">
		<path d="M111.998,251.674c0,0.015-0.006,0.029-0.018,0.044c-10.084,12.408-22.354,24.39-37.514,36.633
			c-0.023,0.021-0.056,0.021-0.079,0.006c-1.769-1.127-3.574-2.209-5.372-3.222c-0.021-0.015-0.038-0.041-0.035-0.059
			c0-0.023,0.012-0.047,0.032-0.059c17.724-11.278,31.745-22.201,42.868-33.392c0.026-0.026,0.068-0.026,0.094-0.003
			C111.989,251.639,111.998,251.656,111.998,251.674z M74.419,288.216c14.711-11.885,26.702-23.527,36.61-35.551
			c-10.956,10.85-24.663,21.459-41.85,32.406C70.931,286.063,72.694,287.119,74.419,288.216z"/>
	</g>
	<g id="triangle36_3695_">
		<path d="M14.397,345.205c-0.021,0-0.041,0.009-0.053,0.026C9.535,349.09,4.747,352.47,0,355.416v0.161
			c4.724-2.925,9.491-6.287,14.273-10.116c-1.746,5.903-6.478,11.352-13.018,14.978c-0.417,0.094-0.839,0.182-1.256,0.275v0.138
			c0.428-0.097,0.866-0.188,1.294-0.285c0.009-0.003,0.015-0.003,0.018-0.009c6.651-3.682,11.445-9.248,13.15-15.265
			c0.003-0.006,0.003-0.012,0.003-0.021l0,0C14.461,345.237,14.435,345.205,14.397,345.205z"/>
	</g>
	<g id="triangle36_3694_">
		<path d="M62.449,317.119v0.003c0,0.018-0.006,0.032-0.018,0.044c-18.343,19.772-39.479,34.779-61.126,43.399
			c-0.032,0.012-0.07-0.003-0.085-0.035c-0.018-0.032-0.006-0.07,0.026-0.085c6.619-3.667,11.39-9.204,13.088-15.189
			c0.003-0.018,0.018-0.033,0.032-0.042c17.797-8.945,33.485-18.149,47.964-28.136c0.012-0.018,0.032-0.026,0.05-0.026
			C62.419,317.051,62.449,317.081,62.449,317.119z M2.159,360.075c21.151-8.603,41.78-23.29,59.756-42.548
			c-14.338,9.855-29.871,18.953-47.459,27.796C12.815,351.07,8.359,356.404,2.159,360.075z"/>
	</g>
	<g id="triangle36_3693_">
		<path d="M73.193,324.882c0,0.094-0.009,0.191-0.018,0.285c-0.003,0.018-0.012,0.032-0.029,0.044
			C53.31,339.875,29.137,351.769,1.3,360.564c-0.032,0.012-0.07-0.006-0.082-0.041c-0.012-0.032,0.003-0.07,0.038-0.085
			c21.629-8.611,42.748-23.606,61.079-43.361c0.018-0.021,0.047-0.029,0.073-0.018C69.361,319.689,73.193,322.467,73.193,324.882
			z M73.043,325.12c0.255-2.409-3.541-5.229-10.642-7.919C44.525,336.459,24,351.193,2.931,359.904
			C30.041,351.17,53.621,339.472,73.043,325.12z"/>
	</g>
	<g id="triangle36_3692_">
		<path d="M73.161,325.117c-0.023-0.029-0.064-0.035-0.094-0.015c-19.825,14.655-43.986,26.543-71.817,35.339
			c-0.405,0.211-0.833,0.408-1.25,0.61v0.158c0.434-0.214,0.877-0.422,1.3-0.646c26.857-8.485,50.305-19.857,69.74-33.816
			C49.522,343.964,24.971,356.463,0,363.097v0.111c25.79-6.842,51.13-19.913,73.152-37.998c0.015-0.015,0.023-0.035,0.023-0.053
			C73.175,325.143,73.169,325.128,73.161,325.117z"/>
	</g>
	<circle cx="15.653" cy="4.105" r="1.569"/>
	<circle cx="23.333" cy="7.464" r="1.569"/>
	<circle cx="15.653" cy="4.105" r="1.569"/>
	<circle cx="73.108" cy="325.158" r="1.57"/>
	<circle cx="100.109" cy="296.387" r="1.57"/>
	<circle cx="97.871" cy="291.788" r="1.568"/>
	<circle cx="22.207" cy="8.079" r="1.569"/>
	<circle cx="75.798" cy="43.949" r="1.569"/>
	<path d="M74.015,45.147c0.865,0,1.567-0.703,1.567-1.569c0-0.867-0.702-1.569-1.567-1.569c-0.869,0-1.57,0.703-1.57,1.569
		C72.445,44.444,73.146,45.147,74.015,45.147z"/>
	<circle cx="22.207" cy="8.079" r="1.569"/>
	<circle cx="22.207" cy="8.079" r="1.569"/>
	<circle cx="23.333" cy="7.464" r="1.569"/>
	<circle cx="73.108" cy="325.158" r="1.57"/>
	<circle cx="125.816" cy="105.952" r="1.569"/>
	<path d="M74.015,45.147c0.865,0,1.567-0.703,1.567-1.569c0-0.867-0.702-1.569-1.567-1.569c-0.869,0-1.57,0.703-1.57,1.569
		C72.445,44.444,73.146,45.147,74.015,45.147z"/>
	<circle cx="103.363" cy="131.504" r="1.569"/>
	<circle cx="125.816" cy="105.952" r="1.569"/>
	<circle cx="75.798" cy="43.949" r="1.569"/>
	<path d="M74.015,45.147c0.865,0,1.567-0.703,1.567-1.569c0-0.867-0.702-1.569-1.567-1.569c-0.869,0-1.57,0.703-1.57,1.569
		C72.445,44.444,73.146,45.147,74.015,45.147z"/>
	<circle cx="74.422" cy="288.3" r="1.568"/>
	<circle cx="97.871" cy="291.788" r="1.568"/>
	<circle cx="111.93" cy="251.674" r="1.57"/>
	<path d="M62.381,318.691c0.869,0,1.573-0.704,1.573-1.57s-0.704-1.57-1.573-1.57c-0.865,0-1.566,0.704-1.566,1.57
		S61.516,318.691,62.381,318.691z"/>
	<circle cx="74.422" cy="288.3" r="1.568"/>
	<circle cx="50.98" cy="289.284" r="1.57"/>
	<path d="M62.381,318.691c0.869,0,1.573-0.704,1.573-1.57s-0.704-1.57-1.573-1.57c-0.865,0-1.566,0.704-1.566,1.57
		S61.516,318.691,62.381,318.691z"/>
	<circle cx="97.871" cy="291.788" r="1.568"/>
	<circle cx="74.422" cy="288.3" r="1.568"/>
	<path d="M62.381,318.691c0.869,0,1.573-0.704,1.573-1.57s-0.704-1.57-1.573-1.57c-0.865,0-1.566,0.704-1.566,1.57
		S61.516,318.691,62.381,318.691z"/>
	<circle cx="73.108" cy="325.158" r="1.57"/>
	<circle cx="97.871" cy="291.788" r="1.568"/>
	<circle cx="8.359" cy="242.91" r="1.57"/>
	<circle cx="8.359" cy="242.91" r="1.57"/>
	<circle cx="8.359" cy="242.91" r="1.57"/>
	<circle cx="53.632" cy="220.398" r="1.57"/>
	<circle cx="114.263" cy="273.199" r="1.568"/>
	<circle cx="97.871" cy="291.788" r="1.568"/>
	<circle cx="111.93" cy="251.674" r="1.57"/>
	<circle cx="114.263" cy="273.199" r="1.568"/>
	<circle cx="100.109" cy="296.387" r="1.57"/>
	<circle cx="97.871" cy="291.788" r="1.568"/>
	<circle cx="35.137" cy="12.151" r="1.569"/>
	<circle cx="23.333" cy="7.464" r="1.569"/>
	<circle cx="22.207" cy="8.079" r="1.569"/>
	<circle cx="35.137" cy="12.151" r="1.569"/>
	<circle cx="15.653" cy="4.105" r="1.569"/>
	<circle cx="23.333" cy="7.464" r="1.569"/>
	<circle cx="39.039" cy="14.025" r="1.569"/>
	<circle cx="22.207" cy="8.079" r="1.569"/>
	<circle cx="75.798" cy="43.949" r="1.569"/>
	<circle cx="39.039" cy="14.025" r="1.569"/>
	<circle cx="35.137" cy="12.151" r="1.569"/>
	<circle cx="22.207" cy="8.079" r="1.569"/>
	<circle cx="39.039" cy="14.025" r="1.569"/>
	<circle cx="15.653" cy="4.105" r="1.569"/>
	<circle cx="35.137" cy="12.151" r="1.569"/>
	<circle cx="39.039" cy="14.025" r="1.569"/>
	<circle cx="15.653" cy="4.105" r="1.569"/>
	<circle cx="49.32" cy="19.911" r="1.569"/>
	<circle cx="140.741" cy="161.483" r="1.569"/>
	<circle cx="135.583" cy="228.382" r="1.57"/>
	<circle cx="138.074" cy="162.986" r="1.569"/>
	<circle cx="58.723" cy="274.145" r="1.57"/>
	<circle cx="53.632" cy="220.398" r="1.57"/>
	<circle cx="8.359" cy="242.91" r="1.57"/>
	<circle cx="58.723" cy="274.145" r="1.57"/>
	<circle cx="50.98" cy="289.284" r="1.57"/>
	<circle cx="8.359" cy="242.91" r="1.57"/>
	<path d="M138.512,156.608c0.865,0,1.566-0.703,1.566-1.569c0-0.867-0.701-1.569-1.566-1.569c-0.869,0-1.57,0.703-1.57,1.569
		C136.942,155.905,137.643,156.608,138.512,156.608z"/>
	<circle cx="138.074" cy="162.986" r="1.569"/>
	<circle cx="103.363" cy="131.504" r="1.569"/>
	<path d="M138.512,156.608c0.865,0,1.566-0.703,1.566-1.569c0-0.867-0.701-1.569-1.566-1.569c-0.869,0-1.57,0.703-1.57,1.569
		C136.942,155.905,137.643,156.608,138.512,156.608z"/>
	<circle cx="125.816" cy="105.952" r="1.569"/>
	<circle cx="103.363" cy="131.504" r="1.569"/>
	<path d="M138.512,156.608c0.865,0,1.566-0.703,1.566-1.569c0-0.867-0.701-1.569-1.566-1.569c-0.869,0-1.57,0.703-1.57,1.569
		C136.942,155.905,137.643,156.608,138.512,156.608z"/>
	<circle cx="140.741" cy="161.483" r="1.569"/>
	<circle cx="138.074" cy="162.986" r="1.569"/>
	<path d="M138.512,156.608c0.865,0,1.566-0.703,1.566-1.569c0-0.867-0.701-1.569-1.566-1.569c-0.869,0-1.57,0.703-1.57,1.569
		C136.942,155.905,137.643,156.608,138.512,156.608z"/>
	<circle cx="137.244" cy="140.186" r="1.569"/>
	<circle cx="125.816" cy="105.952" r="1.569"/>
	<path d="M138.512,156.608c0.865,0,1.566-0.703,1.566-1.569c0-0.867-0.701-1.569-1.566-1.569c-0.869,0-1.57,0.703-1.57,1.569
		C136.942,155.905,137.643,156.608,138.512,156.608z"/>
	<circle cx="137.244" cy="140.186" r="1.569"/>
	<circle cx="140.741" cy="161.483" r="1.569"/>
	<circle cx="94.811" cy="154.728" r="1.569"/>
	<circle cx="28.028" cy="129.519" r="1.57"/>
	<circle cx="94.811" cy="154.728" r="1.569"/>
	<circle cx="53.632" cy="220.398" r="1.57"/>
	<circle cx="94.811" cy="154.728" r="1.569"/>
	<circle cx="103.363" cy="131.504" r="1.569"/>
	<circle cx="28.028" cy="129.519" r="1.57"/>
	<circle cx="94.811" cy="154.728" r="1.569"/>
	<circle cx="122.243" cy="159.117" r="1.569"/>
	<circle cx="138.074" cy="162.986" r="1.569"/>
	<circle cx="103.363" cy="131.504" r="1.569"/>
	<circle cx="94.811" cy="154.728" r="1.569"/>
	<circle cx="122.243" cy="159.117" r="1.569"/>
	<circle cx="138.074" cy="162.986" r="1.569"/>
	<circle cx="111.93" cy="251.674" r="1.57"/>
	<circle cx="86.554" cy="48.539" r="1.569"/>
	<circle cx="125.816" cy="105.952" r="1.569"/>
	<circle cx="75.798" cy="43.949" r="1.569"/>
	<circle cx="86.554" cy="48.539" r="1.569"/>
	<circle cx="39.039" cy="14.025" r="1.569"/>
	<circle cx="75.798" cy="43.949" r="1.569"/>
	<circle cx="86.554" cy="48.539" r="1.569"/>
	<circle cx="49.32" cy="19.911" r="1.569"/>
	<circle cx="39.039" cy="14.025" r="1.569"/>
	<circle cx="77.823" cy="228.804" r="1.57"/>
	<circle cx="58.723" cy="274.145" r="1.57"/>
	<circle cx="53.632" cy="220.398" r="1.57"/>
	<circle cx="77.823" cy="228.804" r="1.57"/>
	<circle cx="94.811" cy="154.728" r="1.569"/>
	<circle cx="53.632" cy="220.398" r="1.57"/>
	<circle cx="77.823" cy="228.804" r="1.57"/>
	<circle cx="111.93" cy="251.674" r="1.57"/>
	<circle cx="94.811" cy="154.728" r="1.569"/>
	<circle cx="8.359" cy="242.91" r="1.57"/>
	<circle cx="50.98" cy="289.284" r="1.57"/>
	<circle cx="8.359" cy="242.91" r="1.57"/>
	<circle cx="112.088" cy="251.51" r="1.57"/>
	<circle cx="78.099" cy="254.621" r="1.568"/>
	<circle cx="93.546" cy="230.943" r="1.57"/>
	<circle cx="112.088" cy="251.51" r="1.57"/>
	<circle cx="78.099" cy="254.621" r="1.568"/>
	<circle cx="68.695" cy="284.054" r="1.568"/>
	<circle cx="136.46" cy="221.868" r="1.57"/>
	<circle cx="140.741" cy="161.483" r="1.569"/>
	<circle cx="135.583" cy="228.382" r="1.57"/>
	<circle cx="136.46" cy="221.868" r="1.57"/>
	<circle cx="121.53" cy="176.391" r="1.568"/>
	<circle cx="112.088" cy="251.51" r="1.57"/>
	<circle cx="108.896" cy="82.013" r="1.569"/>
	<circle cx="86.554" cy="48.539" r="1.569"/>
	<circle cx="125.816" cy="105.952" r="1.569"/>
	<circle cx="68.995" cy="42.225" r="1.569"/>
	<circle cx="108.896" cy="82.013" r="1.569"/>
	<circle cx="86.554" cy="48.539" r="1.569"/>
	<circle cx="68.995" cy="42.225" r="1.569"/>
	<circle cx="49.32" cy="19.911" r="1.569"/>
	<circle cx="86.554" cy="48.539" r="1.569"/>
	<circle cx="68.995" cy="42.225" r="1.569"/>
	<circle cx="121.53" cy="176.391" r="1.568"/>
	<circle cx="108.896" cy="82.013" r="1.569"/>
	<circle cx="68.995" cy="42.225" r="1.569"/>
	<circle cx="15.653" cy="4.105" r="1.569"/>
	<circle cx="49.32" cy="19.911" r="1.569"/>
	<circle cx="68.995" cy="42.225" r="1.569"/>
	<circle cx="15.653" cy="4.105" r="1.569"/>
	<circle cx="103.254" cy="294.859" r="1.57"/>
	<circle cx="100.109" cy="296.387" r="1.57"/>
	<circle cx="73.108" cy="325.158" r="1.57"/>
	<circle cx="103.254" cy="294.859" r="1.57"/>
	<circle cx="100.109" cy="296.387" r="1.57"/>
	<circle cx="114.263" cy="273.199" r="1.568"/>
	<circle cx="44.364" cy="53.506" r="1.569"/>
	<circle cx="103.363" cy="131.504" r="1.569"/>
	<circle cx="28.028" cy="129.519" r="1.57"/>
	<circle cx="44.364" cy="53.506" r="1.569"/>
	<circle cx="44.364" cy="53.506" r="1.569"/>
	<circle cx="107.338" cy="289.732" r="1.568"/>
	<circle cx="103.254" cy="294.859" r="1.57"/>
	<circle cx="114.263" cy="273.199" r="1.568"/>
	<circle cx="107.338" cy="289.732" r="1.568"/>
	<circle cx="136.46" cy="221.868" r="1.57"/>
	<circle cx="135.583" cy="228.382" r="1.57"/>
	<circle cx="64.943" cy="44.204" r="1.569"/>
	<circle cx="103.363" cy="131.504" r="1.569"/>
	<circle cx="44.364" cy="53.506" r="1.569"/>
	<circle cx="64.943" cy="44.204" r="1.569"/>
	<path d="M74.015,45.147c0.865,0,1.567-0.703,1.567-1.569c0-0.867-0.702-1.569-1.567-1.569c-0.869,0-1.57,0.703-1.57,1.569
		C72.445,44.444,73.146,45.147,74.015,45.147z"/>
	<circle cx="103.363" cy="131.504" r="1.569"/>
	<path d="M104.398,291.341c0.866,0,1.567-0.704,1.567-1.569c0-0.869-0.701-1.57-1.567-1.57c-0.868,0-1.569,0.701-1.569,1.57
		C102.829,290.637,103.53,291.341,104.398,291.341z"/>
	<circle cx="103.254" cy="294.859" r="1.57"/>
	<circle cx="73.108" cy="325.158" r="1.57"/>
	<path d="M104.398,291.341c0.866,0,1.567-0.704,1.567-1.569c0-0.869-0.701-1.57-1.567-1.57c-0.868,0-1.569,0.701-1.569,1.57
		C102.829,290.637,103.53,291.341,104.398,291.341z"/>
	<circle cx="107.338" cy="289.732" r="1.568"/>
	<circle cx="103.254" cy="294.859" r="1.57"/>
	<path d="M104.398,291.341c0.866,0,1.567-0.704,1.567-1.569c0-0.869-0.701-1.57-1.567-1.57c-0.868,0-1.569,0.701-1.569,1.57
		C102.829,290.637,103.53,291.341,104.398,291.341z"/>
	<circle cx="136.46" cy="221.868" r="1.57"/>
	<circle cx="107.338" cy="289.732" r="1.568"/>
	<path d="M104.398,291.341c0.866,0,1.567-0.704,1.567-1.569c0-0.869-0.701-1.57-1.567-1.57c-0.868,0-1.569,0.701-1.569,1.57
		C102.829,290.637,103.53,291.341,104.398,291.341z"/>
	<circle cx="112.088" cy="251.51" r="1.57"/>
	<circle cx="136.46" cy="221.868" r="1.57"/>
	<path d="M104.398,291.341c0.866,0,1.567-0.704,1.567-1.569c0-0.869-0.701-1.57-1.567-1.57c-0.868,0-1.569,0.701-1.569,1.57
		C102.829,290.637,103.53,291.341,104.398,291.341z"/>
	<circle cx="92.299" cy="286.647" r="1.57"/>
	<circle cx="68.695" cy="284.054" r="1.568"/>
	<circle cx="112.088" cy="251.51" r="1.57"/>
	<circle cx="36.22" cy="346.135" r="1.57"/>
	<circle cx="73.108" cy="325.158" r="1.57"/>
	<circle cx="36.22" cy="346.135" r="1.57"/>
	<path d="M104.398,291.341c0.866,0,1.567-0.704,1.567-1.569c0-0.869-0.701-1.57-1.567-1.57c-0.868,0-1.569,0.701-1.569,1.57
		C102.829,290.637,103.53,291.341,104.398,291.341z"/>
	<circle cx="73.108" cy="325.158" r="1.57"/>
	<circle cx="36.22" cy="346.135" r="1.57"/>
	<circle cx="36.22" cy="346.135" r="1.57"/>
	<circle cx="68.695" cy="284.054" r="1.568"/>
	<circle cx="92.299" cy="286.647" r="1.57"/>
	<path d="M104.398,291.341c0.866,0,1.567-0.704,1.567-1.569c0-0.869-0.701-1.57-1.567-1.57c-0.868,0-1.569,0.701-1.569,1.57
		C102.829,290.637,103.53,291.341,104.398,291.341z"/>
	<circle cx="36.22" cy="346.135" r="1.57"/>
	<circle cx="68.695" cy="284.054" r="1.568"/>
	<circle cx="5.196" cy="9.996" r="1.569"/>
	<circle cx="44.364" cy="53.506" r="1.569"/>
	<circle cx="5.196" cy="9.996" r="1.569"/>
	<circle cx="64.943" cy="44.204" r="1.569"/>
	<circle cx="44.364" cy="53.506" r="1.569"/>
	<circle cx="5.196" cy="9.996" r="1.569"/>
	<path d="M74.015,45.147c0.865,0,1.567-0.703,1.567-1.569c0-0.867-0.702-1.569-1.567-1.569c-0.869,0-1.57,0.703-1.57,1.569
		C72.445,44.444,73.146,45.147,74.015,45.147z"/>
	<circle cx="64.943" cy="44.204" r="1.569"/>
	<circle cx="5.196" cy="9.996" r="1.569"/>
	<circle cx="22.207" cy="8.079" r="1.569"/>
	<path d="M74.015,45.147c0.865,0,1.567-0.703,1.567-1.569c0-0.867-0.702-1.569-1.567-1.569c-0.869,0-1.57,0.703-1.57,1.569
		C72.445,44.444,73.146,45.147,74.015,45.147z"/>
	<circle cx="5.196" cy="9.996" r="1.569"/>
	<circle cx="22.207" cy="8.079" r="1.569"/>
	<circle cx="28.028" cy="129.519" r="1.57"/>
	<circle cx="44.64" cy="323.256" r="1.57"/>
	<circle cx="68.64" cy="253.697" r="1.568"/>
	<circle cx="68.695" cy="284.054" r="1.568"/>
	<circle cx="68.64" cy="253.697" r="1.568"/>
	<circle cx="80.064" cy="82.507" r="1.569"/>
	<circle cx="41.938" cy="22.04" r="1.569"/>
	<circle cx="68.995" cy="42.225" r="1.569"/>
	<circle cx="68.64" cy="253.697" r="1.568"/>
	<circle cx="78.099" cy="254.621" r="1.568"/>
	<circle cx="93.546" cy="230.943" r="1.57"/>
	<circle cx="68.64" cy="253.697" r="1.568"/>
	<circle cx="78.099" cy="254.621" r="1.568"/>
	<circle cx="68.695" cy="284.054" r="1.568"/>
	<circle cx="5.196" cy="9.996" r="1.569"/>
	<circle cx="5.196" cy="9.996" r="1.569"/>
	<circle cx="95.811" cy="215.545" r="1.57"/>
	<circle cx="121.53" cy="176.391" r="1.568"/>
	<circle cx="112.088" cy="251.51" r="1.57"/>
	<circle cx="95.811" cy="215.545" r="1.57"/>
	<circle cx="93.546" cy="230.943" r="1.57"/>
	<circle cx="112.088" cy="251.51" r="1.57"/>
	<circle cx="95.811" cy="215.545" r="1.57"/>
	<circle cx="68.995" cy="42.225" r="1.569"/>
	<circle cx="121.53" cy="176.391" r="1.568"/>
	<circle cx="95.811" cy="215.545" r="1.57"/>
	<circle cx="68.64" cy="253.697" r="1.568"/>
	<circle cx="68.995" cy="42.225" r="1.569"/>
	<circle cx="95.811" cy="215.545" r="1.57"/>
	<circle cx="68.64" cy="253.697" r="1.568"/>
	<circle cx="93.546" cy="230.943" r="1.57"/>
	<circle cx="28.028" cy="129.519" r="1.57"/>
	<path d="M14.397,346.845c0.868,0,1.569-0.704,1.569-1.572c0-0.866-0.701-1.567-1.569-1.567c-0.866,0-1.567,0.701-1.567,1.567
		C12.83,346.141,13.531,346.845,14.397,346.845z"/>
	<path d="M14.397,346.845c0.868,0,1.569-0.704,1.569-1.572c0-0.866-0.701-1.567-1.569-1.567c-0.866,0-1.567,0.701-1.567,1.567
		C12.83,346.141,13.531,346.845,14.397,346.845z"/>
	<path d="M14.397,346.845c0.868,0,1.569-0.704,1.569-1.572c0-0.866-0.701-1.567-1.569-1.567c-0.866,0-1.567,0.701-1.567,1.567
		C12.83,346.141,13.531,346.845,14.397,346.845z"/>
	<circle cx="136.643" cy="152.276" r="1.569"/>
	<circle cx="137.244" cy="140.186" r="1.569"/>
	<circle cx="125.816" cy="105.952" r="1.569"/>
	<circle cx="136.643" cy="152.276" r="1.569"/>
	<circle cx="108.896" cy="82.013" r="1.569"/>
	<circle cx="125.816" cy="105.952" r="1.569"/>
	<circle cx="136.643" cy="152.276" r="1.569"/>
	<circle cx="137.244" cy="140.186" r="1.569"/>
	<circle cx="140.741" cy="161.483" r="1.569"/>
	<circle cx="136.643" cy="152.276" r="1.569"/>
	<circle cx="136.46" cy="221.868" r="1.57"/>
	<circle cx="140.741" cy="161.483" r="1.569"/>
	<circle cx="136.643" cy="152.276" r="1.569"/>
	<circle cx="121.53" cy="176.391" r="1.568"/>
	<circle cx="136.46" cy="221.868" r="1.57"/>
	<circle cx="136.643" cy="152.276" r="1.569"/>
	<circle cx="121.53" cy="176.391" r="1.568"/>
	<circle cx="108.896" cy="82.013" r="1.569"/>
	<circle cx="130.707" cy="238.589" r="1.57"/>
	<circle cx="114.263" cy="273.199" r="1.568"/>
	<circle cx="111.93" cy="251.674" r="1.57"/>
	<circle cx="130.707" cy="238.589" r="1.57"/>
	<circle cx="138.074" cy="162.986" r="1.569"/>
	<circle cx="111.93" cy="251.674" r="1.57"/>
	<circle cx="130.707" cy="238.589" r="1.57"/>
	<circle cx="107.338" cy="289.732" r="1.568"/>
	<circle cx="114.263" cy="273.199" r="1.568"/>
	<circle cx="130.707" cy="238.589" r="1.57"/>
	<circle cx="135.583" cy="228.382" r="1.57"/>
	<circle cx="138.074" cy="162.986" r="1.569"/>
	<circle cx="130.707" cy="238.589" r="1.57"/>
	<circle cx="107.338" cy="289.732" r="1.568"/>
	<circle cx="135.583" cy="228.382" r="1.57"/>
	<circle cx="28.028" cy="129.519" r="1.57"/>
	<circle cx="44.364" cy="53.506" r="1.569"/>
	<circle cx="28.028" cy="129.519" r="1.57"/>
	<circle cx="44.364" cy="53.506" r="1.569"/>
	<circle cx="18.375" cy="322.722" r="1.57"/>
	<circle cx="18.375" cy="322.722" r="1.57"/>
	<path d="M14.397,346.845c0.868,0,1.569-0.704,1.569-1.572c0-0.866-0.701-1.567-1.569-1.567c-0.866,0-1.567,0.701-1.567,1.567
		C12.83,346.141,13.531,346.845,14.397,346.845z"/>
	<circle cx="18.375" cy="322.722" r="1.57"/>
	<circle cx="50.98" cy="289.284" r="1.57"/>
	<circle cx="18.375" cy="322.722" r="1.57"/>
	<path d="M62.381,318.691c0.869,0,1.573-0.704,1.573-1.57s-0.704-1.57-1.573-1.57c-0.865,0-1.566,0.704-1.566,1.57
		S61.516,318.691,62.381,318.691z"/>
	<path d="M14.397,346.845c0.868,0,1.569-0.704,1.569-1.572c0-0.866-0.701-1.567-1.569-1.567c-0.866,0-1.567,0.701-1.567,1.567
		C12.83,346.141,13.531,346.845,14.397,346.845z"/>
	<circle cx="18.375" cy="322.722" r="1.57"/>
	<path d="M62.381,318.691c0.869,0,1.573-0.704,1.573-1.57s-0.704-1.57-1.573-1.57c-0.865,0-1.566,0.704-1.566,1.57
		S61.516,318.691,62.381,318.691z"/>
	<circle cx="50.98" cy="289.284" r="1.57"/>
	<circle cx="69.047" cy="285.075" r="1.568"/>
	<circle cx="58.723" cy="274.145" r="1.57"/>
	<circle cx="50.98" cy="289.284" r="1.57"/>
	<circle cx="69.047" cy="285.075" r="1.568"/>
	<circle cx="74.422" cy="288.3" r="1.568"/>
	<circle cx="50.98" cy="289.284" r="1.57"/>
	<circle cx="69.047" cy="285.075" r="1.568"/>
	<circle cx="77.823" cy="228.804" r="1.57"/>
	<circle cx="58.723" cy="274.145" r="1.57"/>
	<circle cx="69.047" cy="285.075" r="1.568"/>
	<circle cx="111.93" cy="251.674" r="1.57"/>
	<circle cx="77.823" cy="228.804" r="1.57"/>
	<circle cx="69.047" cy="285.075" r="1.568"/>
	<circle cx="111.93" cy="251.674" r="1.57"/>
	<circle cx="74.422" cy="288.3" r="1.568"/>
	<path d="M14.397,346.845c0.868,0,1.569-0.704,1.569-1.572c0-0.866-0.701-1.567-1.569-1.567c-0.866,0-1.567,0.701-1.567,1.567
		C12.83,346.141,13.531,346.845,14.397,346.845z"/>
	<path d="M62.381,318.691c0.869,0,1.573-0.704,1.573-1.57s-0.704-1.57-1.573-1.57c-0.865,0-1.566,0.704-1.566,1.57
		S61.516,318.691,62.381,318.691z"/>
	<path d="M14.397,346.845c0.868,0,1.569-0.704,1.569-1.572c0-0.866-0.701-1.567-1.569-1.567c-0.866,0-1.567,0.701-1.567,1.567
		C12.83,346.141,13.531,346.845,14.397,346.845z"/>
	<circle cx="73.108" cy="325.158" r="1.57"/>
	<path d="M62.381,318.691c0.869,0,1.573-0.704,1.573-1.57s-0.704-1.57-1.573-1.57c-0.865,0-1.566,0.704-1.566,1.57
		S61.516,318.691,62.381,318.691z"/>
	<circle cx="73.108" cy="325.158" r="1.57"/>
</g>
</svg>
